<svg width="1578" height="1397" viewBox="0 0 1578 1397" fill="none" xmlns="http://www.w3.org/2000/svg">
<path d="M974.034 121.776C970.078 155.167 937.196 180.189 910.119 199.464C902.556 195.477 894.942 191.564 887.289 187.714C849.212 172.041 786.825 164.095 786.825 164.095C786.825 164.095 817.169 120.017 785.676 121.681C754.843 123.308 719.224 146.815 697.772 166.692C656.038 173.367 637.754 180.774 601.535 199.126C587.527 189.259 578.864 181.716 566.295 171.136C522.513 135.21 545.163 85.9533 560.5 41.4518C563.018 34.1458 572.79 19.0193 566.295 13.9518C545.153 12.0974 517.608 34.8174 491.749 64.4518C484.916 72.283 475.799 78.4503 470 86.9518C411.448 172.792 398.29 259.548 491.749 337.802C488.332 348.262 485.625 356.821 483.127 367.465C474.075 361.512 453.592 344.742 445.24 360.643C435.138 379.845 446.229 404.059 450.885 422.73C454.282 436.382 481.238 471.266 477.632 478.865C466.091 482.157 456.32 475.363 446.568 483.528C435.748 503.05 475.853 545.807 492.549 556.396C499.513 560.812 508.605 567.423 515.259 572.535C536.831 601.585 552.6 618.245 586.411 636.085C586.411 636.085 696.739 667.452 764.229 667.452C831.718 667.452 914.016 637.237 914.016 637.237C938.265 626.347 960.805 613.335 978.101 594.197C991.269 579.621 995.995 569.655 1015.01 560.73C1021.37 557.749 1036.45 543.192 1041.94 537.194C1053.18 524.923 1068.64 503.791 1068.35 486.975C1066.43 472.373 1042.28 484.552 1033.59 478.325C1033.31 476.433 1033.16 473.982 1034.33 472.382C1058.82 438.485 1072.16 409.38 1070.61 367.209C1068 358.476 1066.29 357.8 1058.55 352.249C1055.81 350.686 1051.48 350.887 1048.26 351.097C1045.04 351.307 1028.58 360.714 1028.58 360.714C1028.58 360.714 1025.7 356.767 1026.08 351.097C1026.7 341.82 1035.63 338.957 1039.36 330.633C1041.33 326.236 1042.1 322.916 1043.29 319.011C1045.46 315.591 1051.48 308.816 1054.21 305.506C1099.85 250.149 1103.22 180.682 1071.58 118.324C1048.72 73.2673 1011.72 26.4417 961.635 2.73072C958.357 1.17992 957.009 2.39056 954.141 3.6451C952.812 6.29591 951.273 6.32793 952.143 9.13145C963.733 46.3389 978.7 82.3691 974.034 121.776Z" fill="white"/>
<path d="M902.806 207.246C929.883 187.971 969.68 154.996 973.636 121.604C978.302 82.1979 964.004 47.5395 952.414 10.3321C951.544 7.52861 951.085 4.29619 952.414 1.64538C955.281 0.390838 958.129 -0.819766 961.406 0.731038C1011.49 24.4421 1048.32 73.0961 1071.18 118.153C1102.82 180.511 1099.45 249.977 1053.81 305.335C1051.08 308.645 1045.06 315.42 1042.9 318.84C1041.7 322.744 1026.89 329.553 1021.47 339.512C1013.22 354.69 1021.85 376.087 1021.85 382.945C1022.35 386.146 1022.17 385.321 1022.41 387.227C1030.19 447.586 1021.76 524.395 979.811 573.991C973.806 579.02 947.589 608.098 942.693 609.854C911.54 621 862.882 653.927 829.76 645.131C804.942 638.538 798.127 654.695 777.965 655.024C744.723 655.555 714.629 657.32 685.274 642.561C680.409 641.519 661.455 646.118 657.978 645.341C567.126 625.032 499.444 564.875 492.361 476.298C491.591 466.679 487.145 459.839 486.945 451.747C486.266 423.757 490.812 387.06 490.812 387.06C490.812 387.06 492.031 381.083 494.978 386.834L497.306 386.861L499.075 383.835C495.528 382.82 497.136 383.57 494.229 381.622L496.457 380.909C502.262 383.67 501.902 384.767 504.83 390.382L506.478 390.601C507.128 387.575 507.827 384.822 508.597 381.823C515.561 379.043 516.46 378.769 522.335 374.545L521.456 372.99L517.219 372.185C517.439 371.152 518.138 369.762 518.588 368.72L521.575 370.54C531.737 363.791 542.617 363.517 553.228 358.643C554.018 358.278 552.719 354.73 555.646 351.868L558.843 354.519C562.091 354.775 561.011 354.474 563.999 355.644C562.89 356.833 561.871 357.976 560.802 359.192C567.906 354.547 567.806 354.337 575.339 355.041C580.465 353.441 583.602 347.232 588.488 342.788C592.285 344.059 592.095 344.15 596.091 344.086C601.397 337.302 594.433 344.425 595.622 336.296L598.249 335.253L603.435 338.152L604.924 336.762C603.415 333.498 603.165 332.711 602.256 329.264L604.274 326.713C615.115 327.545 620.53 324.939 622.229 314.972C623.807 313.838 623.647 311.973 624.327 309.312C628.833 306.66 627.694 307.52 633.959 307.438C640.443 303.186 635.877 297.014 642.721 289.781C644.42 279.466 646.828 276.87 653.582 268.302C656.09 263.885 656.549 263.035 659.806 259.14L662.005 259.46L659.936 261.38C659.866 266.199 660.026 264.809 663.643 269.637C663.823 280.774 654.531 282.1 660.096 293.484L657.758 294.609L657.878 297.992L661.155 296.556C662.554 292.195 661.535 288.702 660.885 289.964C663.823 284.349 666.251 279.347 667.63 273.111C665.372 268.046 664.932 267.534 664.672 262.203C668.199 261.133 666.9 262.102 668.759 259.551C666.76 259.185 667.66 259.286 665.412 259.194L663.723 259.13L663.663 256.817L666.591 255.098C671.267 256.533 670.267 256.726 674.044 260.758C672.565 263.455 672.755 262.349 672.855 265.248L675.343 264.324L675.803 261.087C671.916 256.241 671.147 252.181 670.957 246.393C672.935 245.927 674.204 245.652 676.242 245.332L677.901 245.085L676.432 243.504L671.276 245.168C668.039 240.651 668.729 241.245 663.993 237.88C661.005 232.467 662.314 225.508 662.684 219.108L661.335 218.468C658.358 220.708 659.397 220.123 655.8 221.659L653.732 220.26L653.862 216.3C651.883 214.453 651.064 214.426 648.476 213.365C647.787 210.055 647.867 210.284 648.986 207.047L651.903 206.553L653.612 208.3C653.472 211.866 652.862 211.344 654.361 214.005L663.363 214.481C668.849 219.958 663.633 225.645 668.449 232.22C666.9 224.63 669.648 230.894 670.157 224.237C670.607 218.403 660.666 210.32 655.96 205.922L656.04 201.432C660.446 199.329 658.787 203.791 664.852 204.651C665.172 197.939 665.761 193.358 664.342 186.72L659.166 187.723C669.088 177.747 693.137 183.609 714.22 165.131C720.444 157.956 742.729 141.607 764.5 133.605C774.541 129.914 788.541 127.209 790 128.63C793.5 130.122 787.427 144.673 787.427 144.673C787.427 144.673 774.84 166.443 774.5 168.433C774.16 170.424 777.555 170.645 777.555 170.645C777.555 170.645 837.531 177.861 872.224 192.289C884.552 197.416 895.243 203.259 902.806 207.246Z" fill="#171717"/>
<path d="M960.657 8.02118C960.888 7.81965 962.564 9.24935 963.514 9.87497C964.479 10.511 965.442 11.155 966.402 11.8067C1020.47 48.52 1065.16 109.846 1076.59 170.114C1085.01 214.946 1078.07 259.6 1045.5 298.76C1032.83 313.992 1033.34 312.537 1028.85 320.31C1024.07 324.744 1021.85 325.796 1021.85 325.796C1021.85 325.796 938.426 290.592 917.443 244.873C912.919 235.014 910.52 229.449 911.169 218.101C911.669 209.268 913.208 209.936 920.142 204.257C950.306 181.361 981.828 156.81 985.425 118.824C988.97 81.3507 972.534 48.4866 962.592 14.9041C962.185 13.5301 961.789 12.1549 961.406 10.7781C961.15 9.85984 960.425 8.22272 960.657 8.02118Z" fill="white"/>
<path d="M835.935 232.464C834.286 230.855 833.217 224.555 832.948 222.333L834.836 220.33C839.162 220.641 840.171 221.025 844.308 219.8L841.271 217.916C844.248 215.905 844.788 216.453 848.534 215.996C845.647 212.54 844.608 211.561 842.749 207.428L846.806 205.462L846.846 204.402L842.819 203.597C836.874 208.388 843.429 213.5 837.174 218.191L833.747 217.615C835.386 214.689 835.665 213.975 836.754 210.821L835.376 208.919L829.211 208.407L827.872 206.569C831.269 207.108 832.768 207.328 836.195 207.465L836.395 206.075L832.428 203.862C831.119 197.315 834.566 192.807 837.374 185.309L839.922 184.523C841.92 187.76 840.771 186.891 843.928 188.683C847.755 187.705 845.925 191.012 849.911 190.646C855.267 191.707 859.323 192.1 863.989 194.724C859.973 195.803 861.233 192.076 856.847 191.491C855.538 195.715 848.344 209.321 849.384 211.817C852.061 218.209 855.728 221.995 849.943 228.121L850.273 222.543L848.434 221.29L845.887 223.778C846.646 226.118 846.806 226.932 846.936 229.456L844.997 230.343L840.201 225.835L838.063 226.356C837.164 228.679 836.565 230.069 835.935 232.464Z" fill="#171717"/>
<path d="M836.935 230.033C837.564 227.638 838.164 226.248 839.063 223.925L841.201 223.404L845.997 227.912L847.935 227.025C847.805 224.501 847.645 223.687 846.886 221.347L849.434 218.859L851.272 220.112L850.943 225.69C856.728 219.564 853.061 215.778 850.383 209.386C849.344 206.89 856.538 193.284 857.847 189.06C858.456 196.905 860.205 198.13 860.354 206.113L864.711 201.898L866.459 202.519C867.718 209.871 866.959 211.59 871.695 217.826C873.633 221.667 874.552 244.252 877.75 250.497C881.067 256.962 877.17 261.397 880.937 268.776C881.216 277.316 894.225 298.174 899.471 308.982C902.178 308.406 902.938 308.232 905.436 307.491C907.464 311.158 906.864 309.713 907.274 314.002L908.793 314.377L911.73 312.785L913.539 314.249C912.589 317.623 913.109 316.617 911.151 319.36L913.119 320.969C916.816 319.634 916.876 319.195 919.843 316.662C925.728 318.418 925.618 324.151 931.793 329.866C934.251 328.138 934.79 327.763 937.688 326.62L940.416 327.983L936.089 329.857C936.109 330.388 935.78 332.82 936.939 333.231C948.169 337.191 970.779 346.307 982.05 348.355C978.653 355.652 971.878 356.228 964.725 353.202C962.027 350.641 953.774 350.897 950.047 351.071L948.519 351.144C947.589 347.98 948.349 349.379 946.34 346.901L942.154 347.423L939.866 346.764L936.699 344.204L931.044 344.963L930.134 343.408L933.871 337.026C927.776 326.154 911.291 333.03 906.864 320.156L905.026 319.717L900.93 321.957L899.371 321.088C901.879 314.395 900.86 314.623 896.603 308.278L895.194 306.229C887.991 295.54 873.863 293.922 872.484 280.782C871.974 275.826 869.736 273.951 865.46 271.803C864.451 268.282 864.311 268.52 861.543 265.813C857.497 265.237 857.557 265.128 853.82 263.473L856.368 261.168C841.151 247.736 843.729 250.186 836.935 230.033Z" fill="#171717"/>
<path d="M630.854 196.843C636.659 194.42 663.675 183.466 670 182.862L703 209.232C700.492 218.678 721.892 228.558 724 237.593C722.252 238.983 712.689 242.064 711 243.563C776.389 280.652 653.264 237.478 652.395 236.281L653.304 234.552L651.946 228.691L709 232.12C711.937 234.854 686.853 267.907 690 270.431C689.171 278.88 639.012 313.716 641.5 320.683C652.88 329.772 658.89 255.163 656.252 268.303C649.498 276.87 647.09 279.467 645.391 289.782C638.547 297.014 643.113 303.186 636.629 307.438C630.364 307.521 631.503 306.661 626.997 309.313C626.318 311.974 626.477 313.839 624.899 314.973C623.2 324.94 617.785 327.546 606.944 326.714L604.926 329.265C605.835 332.712 606.085 333.499 607.594 336.763L606.105 338.153L600.919 335.254L598.292 336.297C597.103 344.425 604.067 337.302 598.761 344.087C594.765 344.151 594.955 344.06 591.158 342.789C586.272 347.233 583.135 353.441 578.009 355.042C570.476 354.337 570.576 354.548 563.472 359.193C564.541 357.977 565.56 356.834 566.669 355.645C563.682 354.475 564.761 354.776 561.513 354.52L558.316 351.868C555.389 354.731 556.688 358.278 555.898 358.644C545.287 363.518 534.407 363.792 524.246 370.54L521.258 368.721C520.808 369.763 520.109 371.153 519.889 372.186C516.133 373.924 515.143 373.101 510.228 372.817C509.638 375.496 509.608 375.533 508.659 378.038L504.453 379.776C494.671 377.051 497.205 361.85 499.304 355.057C501.272 347.312 504.353 339.753 506.161 331.981C496.839 327.006 491.724 324.373 485.589 316.253L486.968 317.195C490.335 319.453 495.67 323.76 499.946 323.751C521.208 323.724 549.384 312.623 565.19 300.388C588.53 282.302 613.489 254.898 602.938 225.253C603.148 225.884 605.795 217.673 605.955 216.091C602.768 213.421 599.83 210.989 596.933 208.035L595.105 206.151C599.151 206.792 600.84 208.959 604.566 211.656C607.554 211.537 619.943 202.759 624.999 199.925L630.854 196.843Z" fill="#171717"/>
<path d="M874.73 196.293C881.265 196.385 887.737 199.709 892.902 203.44C886.118 205.022 888.516 203.33 884.859 207.866C888.746 212.41 891.666 252.391 894.493 263.602L899.569 262.815L900.898 264.315C899.739 267.497 899.849 266.665 899.539 269.975L904.425 274.766L901.297 276.202C899.649 273.431 891.876 266.08 889.018 261.581C882.793 251.788 886.82 253.882 885.781 243.165C883.783 241.812 881.814 240.404 879.906 238.94C880.805 235.009 882.624 229.925 879.756 226.889L877.318 227.95L875.26 226.825C875.58 222.216 878.067 225.846 884.092 219.565C881.834 217.224 880.755 215.87 878.737 213.374L880.685 211.692C881.345 207.696 881.465 209.762 878.497 205.391L874.63 204.852C872.642 201.697 873.791 201.002 874.73 196.293Z" fill="#171717"/>
<path d="M1032.38 310.245C1027.61 314.679 1023.16 319.452 1017.32 322.479C987.533 302.445 928.115 289.15 919.962 246.31C917.894 235.42 910.52 229.449 911.169 218.101C911.669 209.268 913.207 209.936 920.142 204.258C927.026 212.624 937.816 218.394 937.666 225.773C937.437 236.06 959.648 263.464 966.771 270.021C975.544 278.104 988.383 273.696 995.706 289.351C1005.61 295.733 1025.4 300.927 1032.38 310.245Z" fill="white"/>
<path d="M871.695 217.827C873.634 221.667 874.553 244.253 877.75 250.498C881.067 256.963 877.171 261.398 880.937 268.777C865.531 258.947 867.219 253.936 862.763 240.129L856.798 238.355L856.738 236.17C870.776 232.786 858.097 226.148 862.893 218.001L865.431 222.106L865.181 221.21L868.358 221.576C869.467 220.332 870.586 219.08 871.695 217.827Z" fill="#171717"/>
<path d="M649.397 234.452L650.306 232.724L648.947 226.863L650.436 226.149C653.374 228.883 655.452 230.694 658.599 233.218C657.77 241.667 650.706 238.128 653.194 245.096C664.574 254.185 655.891 253.334 653.254 266.474C646.499 275.042 644.091 277.639 642.393 287.953C635.549 295.186 640.115 301.358 633.63 305.61C627.366 305.692 628.505 304.833 623.999 307.484C623.319 310.145 623.479 312.011 621.901 313.144C620.202 323.111 614.787 325.717 603.946 324.885L601.928 327.436C602.837 330.884 603.087 331.67 604.596 334.934L603.107 336.324L597.921 333.426L595.294 334.468C594.105 342.597 601.069 335.474 595.763 342.259C591.767 342.323 591.956 342.231 588.16 340.96C583.274 345.404 580.137 351.613 575.011 353.213C567.478 352.509 567.577 352.719 560.474 357.364C561.543 356.148 562.562 355.005 563.671 353.816C560.683 352.646 561.762 352.948 558.515 352.692L555.318 350.04C552.39 352.902 553.689 356.45 552.9 356.816C542.289 361.689 531.409 361.964 521.247 368.712L518.26 366.892C517.81 367.935 517.111 369.325 516.891 370.358C513.134 372.095 512.145 371.272 507.229 370.989C506.64 373.668 506.61 373.704 505.661 376.21L501.454 377.947C491.673 375.222 501.202 359.565 503.3 352.771C503.39 358.449 497.408 360.775 498.957 366.17L501.754 367.057C509.847 365.027 526.583 357.776 531.718 350.964C534.656 347.059 552.98 348.028 559.105 347.461C558.885 343.795 558.525 343.328 559.764 339.918C566.738 338.336 570.185 342.496 576.21 341.308C576.75 338.208 576.28 339.259 578.218 336.599C581.216 337.367 582.075 337.513 585.082 337.998C592.446 331.825 599.72 325.562 606.894 319.207C608.152 314.534 607.493 314.37 610.84 311.224C613.268 313.794 611.829 312.998 614.967 313.885L616.146 312.386C615.136 309.011 615.296 309.697 615.007 306.296L617.245 304.229L623.03 305.39L624.768 303.269L620.482 299.84L623.17 291.373C627.176 290.788 629.104 290.961 632.132 288.611L629.934 284.963C633.351 273.113 648.728 276.139 648.278 263.639L643.632 265.34L641.824 263.987C641.544 259.04 646.889 253.737 650.286 249.366C650.696 240.908 647.409 247.153 645.77 238.704L649.397 234.452Z" fill="#171717"/>
<path d="M861.542 265.815C864.31 268.521 864.45 268.284 865.459 271.804C869.735 273.953 871.973 275.827 872.483 280.783C873.862 293.923 887.99 295.542 895.193 306.231L896.602 308.279C900.858 314.625 901.878 314.396 899.37 321.09L900.928 321.958L905.025 319.718L906.863 320.157C911.29 333.031 927.775 326.155 933.87 337.027L930.133 343.41L931.042 344.964L936.698 344.205L939.865 346.766C935.938 347.625 932.821 348.293 928.824 348.924C912.179 343.446 907.003 340.822 905.055 323.796L904.875 322.013C902.747 324.409 901.178 326.439 899.23 328.944L897.261 327.49C894.454 328.249 892.186 328.981 889.428 329.877L887.61 328.972C890.607 325.268 889.099 326.914 894.824 324.82L895.043 323.01C876.639 317.194 877.249 311.159 868.087 294.975C868.966 296.511 870.774 290.174 870.774 290.156C869.326 291.162 867.877 292.158 866.418 293.164C857.196 278.068 859.044 280.994 861.542 265.815Z" fill="#171717"/>
<path d="M880.936 268.777L884.113 271.338C886.341 271.063 888.559 270.753 890.767 270.396C897.371 279.046 892.306 285.346 899.57 288.135L902.537 291.134L901.618 296.429C908.252 303.561 911.339 302.208 920.352 306.789C923.579 308.435 920.961 312.622 921.81 313.345C933.47 323.174 963.814 334.458 975.914 338.225C979.261 337.713 979.051 337.823 981.809 336.031C984.326 333.205 982.708 333.909 986.425 333.352L986.535 338.143C991.8 340.914 996.376 340.091 1002.18 341.673C1010.5 343.94 1004 343.757 1008.5 351.21C1012.42 347.625 1005.74 340.475 1009.93 333.763C1011.01 338.911 1012.03 343.693 1012.81 348.896C1013.21 353.56 1013.31 355.965 1013.19 360.628C1011.11 359.403 1009.24 358.379 1007.11 357.226L999.084 359.595C994.088 352.892 993.159 351.621 985.565 347.351L982.049 348.357C970.778 346.309 948.168 337.192 936.937 333.233C935.778 332.821 936.108 330.389 936.088 329.859L940.414 327.984L937.687 326.622C934.789 327.765 934.25 328.14 931.792 329.868C925.617 324.153 925.727 318.42 919.842 316.664C916.875 319.197 916.815 319.636 913.118 320.971L911.15 319.362C913.108 316.618 912.588 317.624 913.537 314.25L911.729 312.787L908.792 314.378L907.273 314.003C906.863 309.715 907.463 311.159 905.434 307.493C902.937 308.233 902.177 308.407 899.47 308.983C894.224 298.175 881.215 277.318 880.936 268.777Z" fill="#171717"/>
<path d="M618.341 298.033C621.404 294.226 630.436 281.364 633.148 280.077C634.127 285.344 628.353 302.57 626.559 308.878L630.191 302.022L643.18 299.736L635.591 317.869C633.086 322.625 623.28 330.366 618.341 334.903C617.671 340.737 616.207 339.598 609.298 341.798C604.308 341.131 609.231 345.264 604.715 343.429C604.56 350.011 594.925 343.302 591.852 348.204C581.057 351.618 604.122 349.847 591.852 354.731L578.097 352.001C580.696 352.531 583.026 353.014 585.604 353.635C581.717 355.297 583.16 354.731 578.376 354.731C575.118 359.687 573.963 363.695 568.663 365.995L567.972 364.297L576.582 357.656C559.826 352.233 562.208 375.922 547.659 377.474L538.359 370.012C534.07 372.723 526.326 392.724 524.284 392.541C497.703 390.259 509.735 395.015 499.806 402.245C494.444 403.24 494.372 394.084 490.382 392.267C493.125 386.133 503.92 380.701 510.272 377.497L500.457 382.838L496.308 387.06C490.947 388.877 490.813 387.06 490.813 387.06C490.813 387.06 492.809 373.344 495.307 364.297C497.687 355.678 505.299 335.854 505.299 335.854C505.299 340.426 515.035 371.646 525.986 366.78C526.8 366.415 525.46 362.873 528.481 360.016L531.78 362.663C535.132 362.919 534.018 362.618 537.101 363.786C535.956 364.973 534.905 366.114 533.801 367.328C541.133 362.691 536.493 355.268 544.267 355.971C549.557 354.374 552.214 353.55 557.256 349.113C561.174 350.382 566.095 352.312 570.22 352.248C575.695 345.474 568.508 352.585 569.735 344.47L572.447 343.429L577.798 346.323L579.335 344.936C577.778 341.677 577.52 340.892 576.582 337.45L578.665 334.903C589.852 335.734 595.44 333.132 597.193 323.182C598.822 322.05 598.657 320.188 599.359 317.532C604.009 314.884 602.833 315.742 609.298 315.66C615.99 311.415 611.278 305.254 618.341 298.033Z" fill="#171717"/>
<path d="M899.571 288.135L899.291 283.718L901.239 283.828C912.839 302.472 918.185 287.76 922.251 305.691C927.876 312.284 955.742 319.919 964.405 324.582C965.594 325.232 969.54 331.468 970.57 333.059C975.016 334.942 976.794 336.049 981.81 336.031C979.052 337.823 979.262 337.713 975.915 338.225C963.816 334.458 933.472 323.174 921.812 313.345C920.962 312.622 923.58 308.434 920.353 306.788C911.341 302.207 908.253 303.561 901.619 296.428L902.538 291.134L899.571 288.135Z" fill="#171717"/>
<path d="M942.152 347.423L946.339 346.902C948.347 349.38 947.588 347.981 948.517 351.145L950.046 351.072C953.772 350.898 962.025 350.642 964.723 353.202C971.877 356.229 978.651 355.653 982.048 348.356L985.565 347.35C993.158 351.621 994.088 352.892 999.083 359.594L1007.11 357.226C1009.23 358.378 1011.11 359.402 1013.19 360.627C1013.31 355.964 1013.21 353.559 1012.81 348.896C1015.65 355.726 1019.04 374.023 1017.03 380.515L1014.79 380.204C1014.6 382.271 1014.87 381.082 1013.55 383.67L1011.7 382.445C982.328 385.956 996.945 381.722 984.116 374.563C964.243 363.471 952.354 374.014 942.152 347.423Z" fill="#171717"/>
<path d="M982.048 348.356L985.565 347.351C993.158 351.621 994.087 352.892 999.083 359.594L1007.11 357.226C1009.23 358.378 1011.11 359.402 1013.19 360.628C1013.31 355.964 1013.21 353.559 1012.81 348.896C1015.65 355.726 1019.04 374.023 1017.03 380.516L1014.79 380.205C1009.92 374.17 1013.05 369.808 1006.8 368.382C994.987 378.202 995.047 364.34 986.444 360.262C977.402 355.973 972.496 362.209 964.723 353.203C971.876 356.229 978.651 355.653 982.048 348.356Z" fill="#171717"/>
<path d="M452.767 380.167C451.938 373.675 449.7 365.784 456.953 362.776C464.637 364.714 470.592 369.972 477.616 374.452L479.964 376.455C478.625 397.019 473.239 417.419 474.518 438.386C474.638 440.371 473.919 441.788 472.49 443.15C466.745 438.771 454.655 401.116 453.916 392.996C452.757 387.3 452.177 385.809 452.767 380.167Z" fill="#333333"/>
<path d="M554.09 17.7719C556.268 16.6779 558.891 17.0096 560.728 18.6118C562.564 20.2138 563.249 22.7676 562.461 25.0737C558.412 36.9188 554.233 48.7263 549.916 60.4955C544.603 80.5076 540.708 95.8927 538.843 108.669C536.981 121.423 537.224 131.103 539.879 139.74C545.045 156.545 559.802 171.16 592.518 196.043L595.345 193.656L595.625 193.432C597.056 192.362 598.897 191.983 600.645 192.411C602.508 192.867 604.041 194.188 604.769 195.963L605.479 197.7C606.448 196.91 607.68 195.97 608.94 195.3C610.598 194.421 614.741 192.79 618.484 195.925C620.008 197.202 620.8 199.151 620.601 201.128C620.642 200.719 620.604 200.606 620.664 201.584C620.707 202.286 620.774 203.224 620.858 204.424C621.024 206.788 621.24 209.987 621.392 213.587C621.69 220.69 621.757 229.749 620.557 237.292C614.957 272.491 597.191 298.27 572.788 317.18L572.785 317.182C564.292 323.756 552.723 329.858 540.613 334.326C528.521 338.786 515.439 341.784 503.881 341.799L503.882 341.8L503.88 341.799L503.877 341.8L503.876 341.799C500.002 341.806 496.393 339.966 493.978 338.534C491.526 337.08 488.816 335.078 487.548 334.227C487.534 334.218 487.52 334.208 487.506 334.199L486.127 333.257C485.826 333.052 485.545 332.819 485.286 332.562C480.741 328.053 477.698 324.725 473.683 319.937C473.528 319.793 473.381 319.641 473.242 319.482C446.661 288.884 430.148 246.299 432.364 206.692L432.457 205.168C436.65 140.787 477.938 77.4001 528.02 35.5493C534.783 28.9681 545.954 21.8592 554.09 17.7719Z" fill="white" stroke="#171717" stroke-width="12" stroke-linejoin="round"/>
<path d="M452.767 380.167C451.938 373.675 449.7 365.784 456.953 362.776C464.637 364.714 470.592 369.972 477.616 374.452L476.157 387.775C468.643 390.024 468.503 376.83 460.161 373.959L458.412 375.632C461.02 382.764 461.849 383.038 457.922 389.723L456.024 389.522C455.435 386.056 455.495 382.728 452.767 380.167Z" fill="#363636"/>
<path d="M477.613 374.452L479.961 376.454C478.622 397.019 473.236 417.419 474.515 438.386C474.635 440.37 473.916 441.788 472.487 443.15C466.742 438.77 454.652 401.116 453.913 392.996C457.06 398.025 460.627 410.058 463.845 413.222C464.964 412.097 466.083 410.973 467.202 409.848C470.369 417.611 463.635 418.809 467.112 425.246L469.35 424.323C473.976 416.075 474.655 398.199 476.154 387.775L477.613 374.452Z" fill="#333333"/>
<path d="M1056.98 389.046C1052.48 395.502 1055.59 400.439 1050.33 404.481L1047.42 403.192L1046.23 397.212C1040.99 398.318 1043.42 398.501 1038.65 397.093C1034.58 390.198 1039.3 382.883 1045 378.055C1049.8 374.004 1052.87 375.477 1059.02 375.888C1058.22 380.423 1057.53 384.474 1056.98 389.046Z" fill="#171717"/>
<path d="M557.076 486.42C550.681 469.065 548.663 453.649 556.007 435.845C562.861 419.487 576.549 406.292 594.044 399.169C611.429 392.055 631.212 391.626 648.947 397.981C667.9 404.921 680.38 418.07 688.113 435.013C687.823 440.5 689.242 444.688 684.166 447.961C679.87 436.01 674.025 426.637 662.645 418.966C651.125 411.184 636.567 408.203 622.519 410.736C608.362 413.287 595.972 421.087 588.309 432.279C576.919 448.949 579.347 464.493 583.983 482.15C575.12 484.043 566.078 485.158 557.076 486.42Z" fill="white"/>
<path d="M849.153 403.065C867.617 394.049 885.761 390.748 906.364 396.482C924.958 401.831 940.414 413.791 949.277 429.674C957.919 445.008 959.967 464.64 954.102 481.09C953.363 483.129 952.564 485.15 951.714 487.152C942.642 486.128 933.62 484.784 924.668 483.129C929.923 465.966 931.312 450.604 921.261 434.264C914.217 422.798 902.397 414.449 888.509 411.112C874.911 407.82 860.433 409.832 848.513 416.662C836.444 423.721 831.768 431.311 826.282 442.594C821.377 438.699 822.376 437.821 821.347 431.951C827.551 422.039 829.49 419.597 837.543 410.993C841.15 408.268 845.326 405.607 849.153 403.065Z" fill="white"/>
<path d="M581.959 484.443L680.877 482.614C680.877 482.614 684.89 461.363 684.733 458.823C682.839 429.538 658.513 408.467 626.07 410.927C611.754 411.885 598.458 418.066 589.167 428.08C576.234 442.123 581.959 484.443 581.959 484.443Z" fill="black"/>
<path d="M826.023 484.443L924.941 482.614C924.941 482.614 928.954 461.363 928.796 458.823C926.902 429.538 902.577 408.467 870.134 410.927C855.817 411.885 842.522 418.066 833.23 428.08C820.297 442.123 826.023 484.443 826.023 484.443Z" fill="black"/>
<path d="M826.283 442.595C820.658 464.814 827.263 466.232 826.253 484.684L824.785 485.635C812.785 469.469 814.174 449.526 821.348 431.951C822.377 437.822 821.378 438.699 826.283 442.595Z" fill="#CECED0"/>
<path d="M688.111 435.012C697.093 456.5 694.565 475.95 677.061 492.719C683.745 474.56 686.412 467.446 684.164 447.96C689.24 444.687 687.821 440.499 688.111 435.012Z" fill="#CECED0"/>
<path d="M1052.15 483.805H1054.55C1066.45 493.946 1023.4 538.065 1015.03 547.886C1012.91 548.965 1014.15 548.681 1011.19 548.206C1010.06 540.242 1020.56 530.741 1022.69 524.084C1026.03 513.743 1028.13 501.654 1030.06 491.011C1038.4 487.811 1043.24 485.863 1052.15 483.805Z" fill="#242424"/>
<path d="M454.742 483.925C459.318 484.163 463.794 484.51 468.28 485.315C482.747 487.93 491.32 519.394 487.503 529.023L482.378 528.95C469.479 522.11 451.734 498.857 454.742 483.925Z" fill="#242424"/>
<path d="M801.346 540.15C802.075 540.497 804.043 542.033 804.773 542.573C805.342 555.914 776.867 566.319 764.957 567.609C744.415 569.831 730.207 565.652 714.261 554.259C711.103 550.665 708.106 548.187 707.437 543.752C718.647 537.891 744.165 576.734 801.346 540.15Z" fill="white"/>
<path d="M620 518.495C620 518.495 621.697 508.404 638.309 502.44C662.493 493.759 703 486.386 703 486.386L684.081 633.386L623.662 583.717L620 518.495Z" fill="#171717"/>
<path d="M1057.45 378.136C1058.27 371.194 1060.49 362.755 1053.29 359.538C1045.66 361.611 1039.75 367.233 1032.78 372.025L1030.45 374.166C1031.78 396.158 1037.12 417.974 1035.85 440.396C1035.73 442.518 1036.45 444.033 1037.87 445.49C1043.57 440.806 1055.57 400.539 1056.31 391.856C1057.46 385.764 1058.03 384.17 1057.45 378.136Z" fill="#333333"/>
<path d="M1147.15 250.583C1138.11 247.308 1131.17 251.875 1131.17 251.875C1131.17 251.875 1118.41 243.448 1112.01 250.843C1106.64 257.048 1117.08 264.806 1117.08 264.806C1117.08 264.806 1114.67 273.18 1122.52 278.326C1128.35 282.156 1134.76 279.824 1134.76 279.824C1134.76 279.824 1138.69 285.819 1145.29 288.615C1153.97 292.294 1161.04 286.639 1161.04 286.639C1161.04 286.639 1172.44 287.608 1173.01 279.083C1173.55 271.011 1158.81 264.76 1158.81 264.76C1158.81 264.76 1157.17 254.207 1147.15 250.583Z" fill="#DDD4FF"/>
<path d="M1081.48 340.152C1077.47 338.717 1074.34 340.903 1074.34 340.903C1074.34 340.903 1068.73 337.111 1065.8 340.605C1063.35 343.536 1067.93 347.04 1067.93 347.04C1067.93 347.04 1066.78 350.951 1070.23 353.266C1072.8 354.989 1075.67 353.846 1075.67 353.846C1075.67 353.846 1077.37 356.592 1080.29 357.828C1084.13 359.454 1087.33 356.762 1087.33 356.762C1087.33 356.762 1092.41 357.105 1092.74 353.141C1093.06 349.388 1086.54 346.625 1086.54 346.625C1086.54 346.625 1085.91 341.74 1081.48 340.152Z" fill="#DDD4FF"/>
<path d="M1110.79 302.007C1105.14 299.977 1100.75 302.978 1100.75 302.978C1100.75 302.978 1092.82 297.662 1088.75 302.48C1085.32 306.522 1091.8 311.428 1091.8 311.428C1091.8 311.428 1090.22 316.841 1095.09 320.087C1098.72 322.502 1102.76 320.945 1102.76 320.945C1102.76 320.945 1105.18 324.771 1109.29 326.515C1114.7 328.808 1119.18 325.105 1119.18 325.105C1119.18 325.105 1126.32 325.63 1126.76 320.136C1127.17 314.933 1117.97 311.035 1117.97 311.035C1117.97 311.035 1117.03 304.254 1110.79 302.007Z" fill="#DDD4FF"/>
<path d="M1287.77 118.991C1244.57 120.585 1223.15 153.96 1223.15 153.96C1223.15 153.96 1155.92 138.903 1141.44 184.144C1129.29 222.096 1185.71 238.346 1185.71 238.346C1185.71 238.346 1189.52 280.76 1230.81 289.853C1261.54 296.619 1284.43 274.368 1284.43 274.368C1284.43 274.368 1310.79 294.432 1342.98 295.124C1385.31 296.035 1405.49 257.475 1405.49 257.475C1405.49 257.475 1454.68 241.136 1442.96 201.371C1431.87 163.72 1359.91 162.172 1359.91 162.172C1359.91 162.172 1335.59 117.226 1287.77 118.991Z" fill="#DDD4FF"/>
<path d="M1198.56 208.252V204.508H1192.96C1191.9 204.508 1191.07 205.34 1191.07 206.396C1191.07 207.42 1191.9 208.252 1192.96 208.252H1198.56ZM1192.96 197.052H1206.01V219.452H1198.56V215.708H1196.32L1193.69 219.452H1185.47L1188.77 214.748C1185.73 213.212 1183.61 210.044 1183.61 206.396C1183.61 201.244 1187.81 197.052 1192.96 197.052ZM1223.99 210.14H1229.59V206.364H1223.99C1222.93 206.364 1222.1 207.228 1222.1 208.252C1222.1 209.276 1222.93 210.14 1223.99 210.14ZM1237.08 206.364V210.14H1242.71C1243.73 210.14 1244.57 209.276 1244.57 208.252C1244.57 207.228 1243.73 206.364 1242.71 206.364H1237.08ZM1237.08 217.596V219.452H1229.59V217.596H1223.99C1218.84 217.596 1214.65 213.404 1214.65 208.252C1214.65 203.1 1218.84 198.908 1223.99 198.908H1229.59V197.052H1237.08V198.908H1242.68C1247.83 198.908 1252.02 203.1 1252.02 208.252C1252.02 213.404 1247.83 217.596 1242.68 217.596H1237.08ZM1266.35 211.996L1264.01 205.02L1261.71 211.996H1266.35ZM1251.37 219.452L1258.83 197.052H1269.2L1276.65 219.452H1268.81L1268.2 217.596H1259.82L1259.21 219.452H1251.37ZM1286.05 219.452H1278.56V197.084H1286.05V206.748L1292.51 197.052H1301.02L1293.57 208.252L1301.02 219.452H1292.51L1286.05 209.756V219.452ZM1309.77 197.052H1320.2L1327.65 219.452H1319.78L1314.98 205.02L1310.18 219.452H1302.31L1309.77 197.052ZM1342.28 208.252V204.508H1336.68C1335.62 204.508 1334.79 205.34 1334.79 206.396C1334.79 207.42 1335.62 208.252 1336.68 208.252H1342.28ZM1336.68 197.052H1349.73V219.452H1342.28V215.708H1340.04L1337.41 219.452H1329.19L1332.48 214.748C1329.44 213.212 1327.33 210.044 1327.33 206.396C1327.33 201.244 1331.52 197.052 1336.68 197.052ZM1352.93 197.052H1360.39V211.996H1364.13V197.052H1371.59V211.996H1375.33V197.052H1382.79V219.452H1352.93V197.052ZM1399.38 211.996L1397.04 205.02L1394.74 211.996H1399.38ZM1384.4 219.452L1391.86 197.052H1402.23L1409.68 219.452H1401.84L1401.23 217.596H1392.85L1392.24 219.452H1384.4Z" fill="#121212"/>
<rect x="127" y="588.452" width="1324" height="805" rx="62" fill="#121212" stroke="#FAF4E4" stroke-width="6"/>
<path d="M486.156 719.405H506.631V705.599H486.156C482.295 705.599 479.253 708.758 479.253 712.502C479.253 716.246 482.295 719.405 486.156 719.405ZM534.009 705.599V719.405H554.601C558.345 719.405 561.387 716.246 561.387 712.502C561.387 708.758 558.345 705.599 554.601 705.599H534.009ZM534.009 746.666V753.452H506.631V746.666H486.156C467.319 746.666 451.992 731.339 451.992 712.502C451.992 693.665 467.319 678.338 486.156 678.338H506.631V671.552H534.009V678.338H554.484C573.321 678.338 588.648 693.665 588.648 712.502C588.648 731.339 573.321 746.666 554.484 746.666H534.009ZM641.028 726.191L632.487 700.685L624.063 726.191H641.028ZM586.272 753.452L613.533 671.552H651.441L678.702 753.452H650.037L647.814 746.666H617.16L614.937 753.452H586.272ZM713.055 753.452H685.677V671.669H713.055V707.003L736.689 671.552H767.811L740.55 712.502L767.811 753.452H736.689L713.055 718.001V753.452ZM768.943 722.564V702.44H818.083V722.564H768.943ZM828.613 671.552H855.874V726.191H869.563V671.552H896.824V726.191H910.513V671.552H937.774V753.452H828.613V671.552ZM990.503 756.962C966.05 756.962 946.043 737.072 946.043 712.619C946.043 688.166 966.05 668.159 990.503 668.159C1014.96 668.159 1034.85 688.166 1034.85 712.619C1034.85 737.072 1014.96 756.962 990.503 756.962ZM990.503 729.935C999.863 729.935 1007.58 722.213 1007.58 712.619C1007.58 702.908 999.863 695.186 990.503 695.186C981.026 695.186 973.304 702.908 973.304 712.619C973.304 722.213 981.026 729.935 990.503 729.935ZM1032.45 671.552H1061.11L1074.8 712.502H1082.64L1096.21 671.552H1124.88L1097.62 753.452H1068.95L1073.52 739.763H1055.15L1032.45 671.552Z" fill="#FAF4E4"/>
<path d="M673.552 692.752C673.052 692.101 673.57 691.191 674.285 690.491C674.507 690.271 675.516 690.365 675.714 690.211C676.101 689.91 675.602 689.642 676.063 689.344C676.221 689.244 677.818 689.336 677.947 689.232C678.642 688.66 678.225 688.137 678.552 687.563C680.142 684.793 680.679 681.916 681.278 679.364C681.287 679.357 681.295 679.333 681.303 679.29C681.339 679.113 681.356 678.639 681.504 677.574C681.655 676.552 682.019 674.664 683.216 672.753C685.92 668.7 688.926 668.292 690.112 667.956C690.82 667.864 691.411 667.734 691.904 667.412C692.074 667.298 691.669 665.953 691.68 665.833C691.918 663.978 692.29 666.789 692.702 667.093C694.33 668.302 695.485 668.317 696.456 667.689C696.859 667.42 696.203 664.683 696.766 666.204C696.804 666.307 696.814 667.798 696.942 667.947C697.225 668.282 697.686 667.983 697.886 668.088C698.272 668.297 698.33 668.279 698.674 668.275C699.146 668.283 699.726 668.993 700.192 668.632C700.292 668.55 700.079 667.035 700.229 666.767C700.379 666.5 700.823 666.608 700.982 666.96C701.143 667.312 701.14 668.512 701.179 668.785C701.504 671.09 701.834 667.86 701.896 667.778C702.973 666.372 704.02 668.151 705.065 668.088C705.857 668.036 706.653 667.381 707.396 667.413C707.988 667.442 708.539 667.792 709.098 667.958C709.413 668.039 709.729 668.075 710.048 668.005C710.15 667.985 709.903 666.205 710.029 666.177C711.353 665.875 712.669 666.001 714.002 667.152C714.136 667.269 714.042 668.849 714.178 669.06C715.018 670.316 716.328 673.375 716.545 666.512C717.08 666.761 717.724 667.016 718.232 668.383C718.559 669.262 718.321 670.984 718.665 670.242C718.742 670.077 718.59 668.579 718.71 668.445C719.218 667.88 719.803 668.352 720.298 667.562C720.399 667.398 720.335 666.054 720.358 665.811C720.558 663.844 721.06 667.075 721.155 667.308C721.889 669.047 722.374 668.344 723.014 668.372C723.163 668.379 722.945 666.577 723.087 666.519C723.823 666.243 724.592 666.381 725.331 667.167C725.496 667.346 725.382 668.888 725.463 669.052C725.818 669.758 725.825 666.85 726.164 667.47C726.235 667.597 726.227 668.916 726.242 669.06C726.488 671.327 726.584 668.105 726.633 668.033C726.977 667.476 727.282 668.304 727.587 669.04C727.827 669.607 728.069 670.12 728.33 669.907C728.401 669.845 728.197 668.182 728.4 668.11C729.758 667.616 731.202 668.038 732.602 669.334C732.815 669.533 732.701 670.789 732.718 670.943C732.995 673.349 733.051 670.114 733.117 669.99C733.643 669.1 734.21 671.796 734.48 667.937C736.808 669.208 739.04 666.978 741.426 670.359C741.456 670.398 741.451 671.991 741.51 672.062C742.244 672.935 742.028 670.466 742.409 667.428C742.507 666.665 742.965 670.307 743.003 670.574C743.143 671.557 743.092 673.928 743.135 674.118C743.486 675.609 743.227 667.781 743.657 667.767C743.67 667.78 743.653 669.222 743.693 669.365C743.816 669.811 743.911 669.236 744.032 669.729C744.315 670.87 744.505 674.672 744.826 672.449C744.868 672.16 744.676 667.721 745.074 667.921C745.231 668.004 745.91 667.912 746.109 668.196C746.306 668.479 746.206 669.913 746.221 669.975C746.77 671.857 746.598 672.646 746.907 675.443C747.213 678.229 747.014 671.572 747.104 670.827C747.194 670.084 747.605 671.639 747.703 672.181C747.803 672.722 747.704 673.634 747.79 673.94C748.359 675.94 747.978 670.631 748.144 669.571C748.537 667.063 748.939 671.997 749.322 672.478C749.429 672.608 749.334 671.484 749.428 671.378C749.8 670.974 750.029 672.514 750.451 671.101C750.515 670.871 750.884 667.902 751.096 670.083C751.126 670.397 751.028 671.627 751.187 671.904C751.426 672.319 751.845 672.593 752.109 672.186C752.303 671.885 752.121 669.853 752.351 670.488C752.454 670.771 752.231 671.953 752.424 672.387C752.614 672.82 753.118 672.781 753.311 672.746C753.502 672.711 753.45 671.17 753.468 671.067C753.584 670.476 753.996 669.749 754.03 669.753C754.431 669.726 754.82 669.851 755.196 670.05C756.319 670.706 757.389 672.136 758.603 671.526C758.728 671.466 758.713 669.842 758.733 669.816C759.174 669.153 758.674 673.45 758.906 674.904C758.994 671.613 759.146 672.215 759.451 671.866C759.6 671.695 759.571 670.418 759.589 670.288C759.875 668.362 759.922 670.866 759.941 671.379C760.011 673.265 760.247 671.049 760.293 672.309C760.34 673.56 760.05 675.401 760.336 675.388C760.461 674.214 760.367 671.128 760.601 670.638C761.482 668.782 762.945 671.258 763.63 671.556C764.317 671.852 764.584 671.658 764.999 672.134C765.376 672.567 765.581 672.222 765.824 671.651C766.086 671.089 766.232 670.246 767.038 669.924C767.922 669.647 768.234 670.995 767.544 672.161C767.313 672.591 767.047 673.046 766.79 673.487C766.306 674.284 765.887 675.049 765.67 675.455C765.651 675.491 765.634 675.524 765.618 675.555C765.048 676.62 765.732 675.582 765.412 676.167C765.048 676.722 764.575 677.395 764.414 677.585C764.324 677.675 764.575 677.258 765.094 676.838C765.603 676.406 766.376 676.012 766.924 675.698C769.269 674.425 771.439 672.462 771.23 674.202C771.204 674.287 769.778 674.724 769.741 675.001C769.354 677.054 769.131 677.897 768.158 678.796C768.016 678.913 766.373 678.79 766.272 678.853C765.207 679.479 767.983 679.317 771.048 679.817C766.955 679.585 764.442 679.686 764.397 680.201C764.369 680.515 766.16 680.531 767.414 680.773C767.792 680.844 766.556 681.024 767.397 681.088C770.145 681.284 773.228 681.185 771.993 681.6C771.935 681.619 770.429 681.534 770.337 681.603C769.736 682.059 772.615 682.112 772.976 682.464C773.257 682.725 771.548 683.342 771.324 683.736C766.766 684.431 767.905 684.805 771.034 684.22C771.017 684.267 771.014 684.313 771.016 684.357C771.055 684.664 771.164 684.955 770.881 685.308C770.76 685.459 769.437 685.652 769.299 685.697C767.129 686.367 770.186 685.897 770.321 685.958C771.643 686.61 769.422 687.605 771.783 688.165C771.868 688.181 775.06 687.922 772.755 688.38C772.596 688.406 771.121 688.273 771.044 688.668C770.968 689.086 769.297 689.853 770.791 690.329C771.151 690.432 773.756 690.768 771.724 691.042C771.448 691.077 770.53 691.037 770.019 691.084C768.391 691.225 771.625 691.356 768.873 691.488C766.121 691.625 764.058 691.816 765.926 692.351C765.981 692.365 768.534 692.633 768.483 692.788C768.399 693.028 767.838 693.325 767.831 693.574C767.828 693.694 769.42 693.775 769.447 693.799C770.248 694.742 768.758 695.171 768.024 695.933C767.887 696.071 769.966 696.847 768.223 696.894C766.314 696.952 758.636 695.428 760.357 696.524C761.042 697.001 770.817 698.692 765.653 698.615C766.316 699.358 765.679 699.92 765.404 700.595C765.316 700.744 765.223 700.982 765.331 700.808C765.351 700.775 765.374 700.729 765.434 700.634C765.503 700.541 765.572 700.38 765.914 700.133C766.241 699.855 767.03 699.805 767.305 699.969C767.613 700.107 767.673 700.219 767.723 700.291C767.839 700.554 767.62 700.543 767.434 700.584C767.364 700.614 765.228 701.653 764.875 701.692L764.902 701.74C764.874 701.745 764.857 701.743 764.855 701.733C764.811 701.536 765.888 700.811 765.905 700.664C766.007 700.04 764.793 700.051 764.767 699.445C764.761 699.226 766.055 698.884 766.068 698.668C766.087 698.468 764.334 698.728 765.098 698.229C765.681 697.843 769.202 697.065 769.597 696.845C766.077 697.314 766.121 697.122 765.155 696.845C764.967 696.79 763.743 696.975 763.59 696.953C763.42 696.928 763.364 696.893 763.362 696.853C763.356 696.839 763.362 696.791 763.357 696.776C763.356 696.675 763.775 696.565 763.261 696.481C763.093 696.454 761.881 696.489 761.676 696.468C759.883 696.286 762.601 695.848 763.074 695.774C764.872 695.488 763.292 695.421 763.997 695.218C764.702 695.017 765.597 695.264 766.022 695.037C766.9 694.565 766.684 693.986 766.717 693.524C766.723 693.339 765.112 693.543 765.075 693.518C764.648 693.174 766.344 692.686 763.113 692.69C771.416 691.886 762.292 692.52 763.919 691.896C764.05 691.847 767.976 691.474 768.567 691.601C769.157 691.731 767.946 692.076 768.862 692.253C769.077 692.29 772.786 692.395 773.012 692.434C774.78 692.708 768.897 693.07 768.575 693.103C765.098 693.481 769.091 693.666 769.37 693.766C770.649 694.188 769.834 694.619 770.744 694.978C771.333 695.213 775.192 695.135 775.079 695.334C774.785 695.846 771.393 696.17 772.242 696.455L772.224 696.142C772.455 696.179 772.997 696.191 773.992 696.135C774.988 696.082 779.174 695.562 775.887 696.012C775.676 696.017 772.695 696.59 774.586 696.261C774.824 696.215 776.03 695.978 776.131 695.952C776.776 695.775 775.813 695.955 776.247 695.763C776.681 695.566 777.287 695.161 776.838 695.158C776.564 695.141 774.429 695.98 773.923 696.222C772.461 696.909 774.841 695.749 773.122 696.681C771.424 697.674 768.697 698.912 767.728 699.786C770.522 698.239 773.389 696.648 776.187 695.07C776.185 695.087 776.179 695.116 776.172 695.154C776.189 695.224 776.335 695.399 776.35 695.47C776.325 695.528 776.264 695.521 775.888 695.081C775.657 694.831 775.484 694.537 774.482 693.566C773.899 693.092 773.305 692.272 770.709 691.207C769.455 690.725 767.225 690.224 764.776 690.719C762.344 691.186 760.439 692.486 759.373 693.535C757.339 695.646 757.212 696.598 756.869 697.352C756.628 698.029 756.551 698.436 756.494 698.758C756.397 699.367 756.417 699.616 756.429 699.83C756.466 700.21 756.538 700.3 756.582 700.357C756.651 700.07 756.689 699.791 756.674 699.515C756.662 699.359 754.938 699.417 754.882 699.24C754.658 698.481 755.935 698.014 755.524 697.334C755.199 696.806 753.467 696.054 753.078 695.541C756.735 695.787 755.596 695.017 755.984 694.682C756.119 694.565 757.083 694.719 757.412 694.671C758.629 694.494 755.409 694.187 754.92 694.02C752.828 693.331 760.07 694.338 759.952 693.855C759.95 693.822 756.117 693.065 755.879 693.011C754.333 692.615 757.23 693.138 757.532 693.036C758.083 692.853 759.029 692.76 757.915 692.386C757.586 692.269 755.177 691.927 757.06 691.922C757.307 691.92 758.591 692.013 758.668 692.002C759.941 691.781 755.898 691.562 754.532 691.398C753.167 691.245 755.963 691.142 756.769 691.092C758.853 690.99 757.658 691.191 757.862 691.199C760.293 691.32 759.878 691.131 760.083 690.987C764.053 690.97 763.812 690.716 760.28 690.837C759.894 690.849 760.265 690.957 760.083 690.987C756.189 690.85 755.691 690.783 759.319 690.429C761.019 690.253 763.013 690.278 762.265 689.922C761.926 689.764 759.203 690.011 758.451 689.942C756.738 689.816 759.238 689.22 758.793 688.941C758.633 688.855 757.167 689.171 757.008 689.125C756.581 689.016 757.662 688.672 757.061 688.585C757.005 688.579 755.473 688.902 755.443 688.855C755.289 688.641 755.572 688.352 755.786 688.034C755.818 687.416 755.856 686.82 755.772 686.231C755.658 685.495 754.672 684.301 754.814 683.6C755.038 682.347 757.341 681.181 756.811 680.488C756.472 680.027 754.904 680.071 753.845 679.845C751.793 679.396 755.513 679.087 756.087 679.054C756.107 679.048 756.466 679.328 757.275 679.213C758.952 679.187 756.094 679.055 756.087 679.054C756.461 679.009 756.824 678.614 756.523 678.604C756.359 678.583 754.875 678.604 754.818 678.597C754.159 678.536 753.703 678.745 753.661 679.547C753.624 680.299 754.066 681.93 755.677 683.613C755.745 683.657 757.034 682.606 757.166 682.705C758.515 683.639 758.843 685 759.401 686.473C761.034 687.801 761.472 688.234 761.924 688.735C763.092 690.24 762.92 689.73 763.215 686.914C763.111 687.263 762.908 685.984 762.742 685.209C762.577 684.433 762.361 687.657 762.341 687.72C761.656 689.73 761.362 687.867 760.646 687.551C760.308 687.395 759.581 687.837 759.17 688.174C758.845 688.447 758.687 687.683 758.372 688.155C758.33 688.218 758.313 689.657 758.299 689.712C757.903 691.419 758.201 687.911 758.159 687.281C758.003 684.988 757.908 683.767 757.44 684.823C757.336 685.064 756.823 690.11 756.628 690.398C756.374 690.763 756.547 688.954 756.277 689.381C756.254 689.416 756.207 690.535 756.055 690.478C755.415 690.253 754.737 689.666 754.047 689.604C753.999 689.599 753.95 689.6 753.9 689.608C753.83 689.616 753.821 691.394 753.721 691.434C753.255 691.619 752.746 691.535 752.273 690.692C752.156 690.479 752.261 689.238 752.243 688.868C752.121 686.63 751.814 689.871 751.778 689.933C750.828 691.478 750.07 688.542 749.016 689.951C748.954 690.034 748.565 693.519 748.319 690.538C748.302 690.339 748.054 687.289 747.911 689.38C747.902 689.51 748.053 691.08 747.833 690.924C747.607 690.768 747.284 691.824 746.939 690.103C746.827 689.561 746.539 686.521 746.298 688.955C746.278 689.125 745.964 694.624 745.711 690.841C745.67 690.218 745.6 686.21 745.296 688.274C745.239 688.673 745.382 689.564 745.221 690.127C744.977 690.994 744.579 689.93 744.297 691.724C744.248 692.042 744.071 694.768 743.813 692.709C743.773 692.387 743.795 691.048 743.686 690.901C743.164 690.197 742.66 691.106 742.111 690.196C741.916 689.876 741.949 687.711 741.743 687.137C741.538 686.563 741.13 686.017 740.957 687.011C740.788 688.006 741.107 691.446 740.816 691.73C739.543 692.967 738.177 690.984 736.848 690.726C736.653 690.688 736.85 691.916 736.563 691.948C735.503 692.07 733.679 693.278 732.693 690.682C731.889 688.602 732.789 686.979 732.194 686.14C731.909 685.74 731.725 689.755 731.661 689.883C731.046 691.181 730.555 689.417 729.987 689.976C729.87 690.092 730.028 691.714 729.927 691.794C729.577 692.085 729.202 691.369 728.871 691.509C728.723 691.576 728.78 692.816 728.639 692.724C728.465 692.617 728.299 692.428 728.129 692.112C727.973 691.815 727.815 691.406 727.645 690.847C727.614 690.742 727.776 689.194 727.53 689.142C727.135 689.063 726.62 687.927 726.197 689.121C726.072 689.481 726.13 692.316 725.799 690.364C725.73 689.957 725.731 686.55 725.463 689.5C725.417 689.99 724.949 693.97 724.618 691.419C724.531 690.747 724.284 687.965 724.135 688.407C724.115 688.477 724.236 689.998 724.108 690.15C723.656 690.657 723.167 690.506 722.707 690.995C722.584 691.128 722.81 692.699 722.626 692.848C722.12 693.259 721.47 692.874 720.958 692.394C720.769 692.214 720.861 690.905 720.844 690.763C720.565 688.459 720.522 691.581 720.456 691.765C720.043 692.866 719.666 691.41 719.27 691.81C719.162 691.917 719.286 693.401 719.268 693.534C719.077 694.837 719.167 692.161 719.012 691.871C718.577 691.051 718.125 691.185 717.722 691.389C717.574 691.466 717.802 693.184 717.669 693.233C716.885 693.558 716.067 693.425 715.27 692.508C715.121 692.333 715.15 691.002 715.107 690.7C714.802 688.589 714.636 691.495 714.582 691.774C714.331 693.047 714.157 691.879 713.895 692.112C713.016 692.92 711.972 692.836 711.072 692.586C710.527 692.489 710.01 692.355 709.54 692.242C707.508 691.766 705.936 690.585 704.175 691.001C704.062 691.026 704.263 692.785 704.168 692.829C702.933 693.317 701.707 692.681 700.642 693.25C700.556 693.294 700.774 694.959 700.642 695.085C700.366 695.356 700.016 695.285 699.722 694.769C699.576 694.52 699.655 693.074 699.509 692.854C699.17 692.336 698.846 692.241 698.604 692.531C698.504 692.658 698.814 694.351 698.679 694.382C697.818 694.602 697.467 695.028 697.993 692.984C698.303 692.769 698.65 692.523 699.095 692.197C699.714 691.731 698.512 688.592 700.471 687.989C701.19 688.656 701.889 689.551 702.599 690.307C705.358 688.572 708.281 683.117 708.412 680.497C708.756 677.811 708.517 677.434 708.579 677.98C708.583 679.982 707.885 681.585 707.791 683.311C707.786 683.405 709.626 683.192 709.625 683.376C709.626 684.424 710.162 685.433 708.352 686.542C708.175 686.652 704.929 686.668 705.427 686.968C705.517 687.021 705.96 687.48 706.667 687.588C706.773 687.603 708.286 687.486 708.333 687.637C708.581 688.515 708.252 689.45 707.34 690.354C707.189 690.499 705.574 690.371 705.453 690.474C704.607 691.208 705.843 691.983 704.384 692.709C703.401 693.187 700.611 693.033 697.867 693.292C697.48 693.326 697.42 693.617 695.823 693.634C691.807 693.677 687.409 693.554 683.129 693.616C682.207 693.633 683.2 693.958 680.972 693.766C680.823 693.756 680.083 693.508 679.327 693.454C678.804 693.415 677.18 693.493 676.511 693.414C675.843 693.335 677.204 693.229 676.417 693.095C675.62 692.96 673.773 693.034 673.552 692.752ZM761.873 681.743C761.709 680.182 761.432 685.859 761.734 684.511C761.749 684.439 761.882 681.819 761.873 681.743ZM761.065 700.463C761.897 700.568 762.047 700.524 761.799 700.498C761.309 700.3 759.248 700.138 757.952 700.332C757.838 700.349 757.745 700.368 757.672 700.386C756.509 700.262 760.36 700.309 761.065 700.463ZM769.476 697.797C767.687 698.673 775.216 695.785 773.711 696.418C773.626 696.455 769.583 697.753 769.476 697.797ZM697.077 692.164C697.002 692.166 696.93 692.374 697.005 692.378C698.811 692.472 698.953 692.056 697.077 692.164ZM767.222 695.752C766.136 695.897 767.403 696.199 768.754 696.017C769.841 695.876 768.574 695.569 767.222 695.752ZM749.354 675.252C749.349 675.167 749.206 675.092 749.214 675.571C749.235 677.113 749.429 676.676 749.354 675.252ZM766.776 689.96C766.574 690.894 759.98 691.932 760.649 691.048C760.768 690.88 762.794 691.161 763.371 690.906C764.42 690.413 760.241 690.648 762.421 690.024C762.819 689.897 766.802 689.897 766.785 689.961C766.782 689.961 766.779 689.961 766.776 689.96ZM762.038 674.918C762.037 674.842 761.842 674.763 761.833 674.837C761.651 676.635 762.04 676.796 762.038 674.918ZM740.945 671.927C740.931 671.768 740.46 671.632 740.454 671.779C740.3 674.735 741.24 675.019 740.945 671.927ZM771.203 683.761C773.018 683.612 773.238 683.618 771.036 684.219C771.125 684.059 771.116 683.918 771.203 683.761Z" fill="#DDD4FF"/>
<path d="M701.025 752.748C700.53 752.332 701.06 751.791 701.786 751.379C702.011 751.249 703.018 751.315 703.219 751.223C703.611 751.055 703.117 750.883 703.583 750.716C703.743 750.658 705.338 750.73 705.469 750.669C706.174 750.34 705.768 750.031 706.107 749.695C707.155 748.664 707.781 747.657 708.282 746.623C708.58 746.023 708.834 745.391 709.106 744.78C709.344 744.23 710.792 743.571 710.159 742.997C710.083 742.931 708.683 742.971 708.568 742.958C706.801 742.764 709.628 742.829 710.003 742.701C711.486 742.187 711.615 741.623 711.075 741.129C710.841 740.922 708.06 741.13 709.621 740.921C709.726 740.906 711.213 740.959 711.372 740.902C711.728 740.772 711.463 740.524 711.581 740.421C711.815 740.227 711.8 740.197 711.817 740.014C711.853 739.764 712.592 739.458 712.255 739.194C712.179 739.136 710.655 739.212 710.395 739.121C710.136 739.03 710.266 738.786 710.625 738.703C710.984 738.621 712.183 738.656 712.457 738.641C714.775 738.518 711.565 738.243 711.485 738.206C710.133 737.544 711.961 736.982 711.956 736.361C711.948 735.895 711.345 735.388 711.427 734.943C711.532 734.405 712.358 733.963 712.216 733.44C712.203 733.385 710.41 733.449 710.391 733.383C710.182 732.677 710.378 731.974 711.587 731.265C711.71 731.194 713.284 731.285 713.501 731.215C714.794 730.786 717.901 730.095 711.049 729.841C711.317 729.549 711.593 729.191 712.974 728.929C713.863 728.761 715.578 728.925 714.846 728.717C714.683 728.671 713.182 728.731 713.051 728.661C712.501 728.367 712.989 728.041 712.214 727.749C712.052 727.69 710.707 727.706 710.465 727.689C708.503 727.548 711.746 727.312 711.982 727.261C713.739 726.868 713.047 726.582 713.09 726.218C713.101 726.133 711.294 726.233 711.24 726.152C710.981 725.729 711.136 725.292 711.938 724.878C712.12 724.786 713.66 724.87 713.826 724.826C714.539 724.632 711.632 724.589 712.26 724.403C712.389 724.364 713.706 724.386 713.851 724.378C716.123 724.267 712.904 724.17 712.833 724.141C711.862 723.777 715.222 723.544 714.746 723.192C714.686 723.15 713.019 723.244 712.951 723.126C712.491 722.339 712.949 721.505 714.283 720.724C714.488 720.603 715.74 720.69 715.894 720.682C718.307 720.558 715.075 720.477 714.953 720.438C714.077 720.126 716.787 719.834 712.937 719.622C714.273 718.3 712.111 716.985 715.56 715.674C715.6 715.657 717.192 715.687 717.265 715.654C718.159 715.253 715.685 715.33 712.659 715.066C711.899 715 715.552 714.796 715.82 714.778C716.807 714.712 719.175 714.78 719.367 714.758C720.867 714.577 713.035 714.606 713.032 714.362C713.045 714.354 714.487 714.386 714.63 714.366C715.08 714.302 714.508 714.239 715.004 714.176C716.048 714.047 719.287 713.993 718.205 713.821C718.096 713.803 717.945 713.785 717.743 713.765C717.456 713.737 713.013 713.78 713.223 713.561C713.31 713.473 713.234 713.088 713.522 712.98C713.809 712.872 715.241 712.946 715.303 712.939C717.196 712.649 717.981 712.759 720.784 712.613C723.576 712.467 716.916 712.508 716.173 712.448C715.432 712.389 716.994 712.175 717.537 712.123C718.08 712.071 718.99 712.136 719.297 712.089C721.305 711.781 715.991 711.954 714.934 711.852C712.431 711.613 717.37 711.427 717.854 711.207C717.985 711.147 716.86 711.196 716.755 711.143C716.353 710.933 717.894 710.807 716.481 710.569C716.251 710.53 713.282 710.339 715.461 710.213C715.775 710.196 717.006 710.246 717.281 710.156C717.695 710.023 717.964 709.782 717.553 709.639C717.248 709.534 715.22 709.655 715.85 709.522C716.132 709.463 717.318 709.572 717.748 709.461C718.177 709.351 718.125 709.068 718.084 708.96C718.042 708.852 716.504 708.911 716.4 708.903C715.806 708.85 715.065 708.644 715.066 708.625C714.879 707.708 717.472 706.858 716.613 705.965C716.548 705.895 714.926 705.942 714.899 705.931C714.22 705.691 718.533 705.88 719.976 705.712C716.685 705.736 717.281 705.637 716.92 705.467C716.743 705.386 715.468 705.43 715.338 705.423C713.402 705.302 715.902 705.217 716.414 705.196C718.296 705.116 716.072 705.029 717.33 704.974C718.579 704.92 720.429 705.045 720.406 704.883C719.227 704.837 716.148 704.958 715.649 704.835C713.761 704.368 716.177 703.502 716.428 703.127C716.679 702.753 716.461 702.634 716.887 702.416C717.657 702.022 715.372 702.166 714.327 701.922C713.281 701.678 718.903 701.797 720.111 701.762C721.319 701.727 720.076 701.69 720.74 701.647C721.403 701.604 722.225 701.696 722.474 701.596C722.723 701.496 720.574 701.22 719.311 701.184C716.634 701.108 713.824 701.233 714.811 700.966C714.87 700.951 716.348 701 716.497 700.942C717.635 700.476 717.706 699.991 718.712 699.526C718.853 699.462 720.498 699.519 720.598 699.482C721.65 699.094 718.877 699.232 715.797 699.019C719.896 699.067 722.404 698.949 722.428 698.655C722.444 698.478 720.654 698.508 719.392 698.394C719.012 698.36 720.241 698.235 719.399 698.212C716.647 698.137 713.566 698.255 714.793 697.951C714.851 697.938 716.358 697.98 716.449 697.934C717.046 697.636 714.167 697.601 713.819 697.279C713.545 697.028 715.301 696.578 715.586 696.291C720.194 696.298 719.139 696.027 715.962 695.916C716.092 695.73 715.912 695.529 716.351 695.349C716.501 695.287 717.835 695.327 717.98 695.32C720.241 695.2 717.15 695.119 717.029 695.079C715.851 694.642 718.193 694.287 715.904 693.872C715.821 693.857 712.62 693.833 714.957 693.722C715.119 693.714 716.575 693.852 716.688 693.656C716.801 693.46 718.517 693.092 717.033 692.82C716.676 692.754 714.077 692.588 716.108 692.454C716.384 692.436 717.302 692.456 717.813 692.43C719.44 692.347 716.205 692.302 718.954 692.204C721.702 692.107 723.761 691.904 721.864 691.63C721.809 691.621 719.245 691.556 719.285 691.47C719.352 691.332 719.887 691.137 719.87 690.994C719.861 690.925 718.268 690.969 718.239 690.957C717.347 690.495 718.767 690.165 719.383 689.67C719.499 689.579 717.327 689.318 719.044 689.142C720.923 688.949 728.741 689.148 726.879 688.704C726.134 688.525 716.215 688.298 721.354 687.977C720.081 687.353 722.711 686.777 720.893 686.151C720.812 686.123 718.044 686.034 718.082 685.968C718.143 685.869 719.437 685.816 719.522 685.745C719.912 685.452 718.805 685.183 718.977 684.9C719.039 684.792 720.377 684.83 720.452 684.702C720.525 684.574 718.764 684.488 719.615 684.314C720.263 684.183 723.864 684.052 724.283 683.878C720.732 683.871 720.805 683.752 719.867 683.539C719.686 683.498 718.449 683.542 718.3 683.523C717.663 683.444 718.687 683.371 717.993 683.297C717.827 683.278 716.614 683.278 716.409 683.263C714.623 683.136 717.351 682.928 717.826 682.893C719.631 682.756 718.053 682.692 718.763 682.587C719.474 682.482 720.362 682.639 720.793 682.516C721.685 682.262 721.489 681.936 721.544 681.678C721.559 681.575 719.94 681.645 719.905 681.631C719.494 681.418 721.216 681.203 717.991 681.085C726.33 680.937 717.182 680.956 718.852 680.652C718.987 680.628 722.93 680.598 723.509 680.69C724.087 680.782 722.855 680.921 723.757 681.049C723.969 681.079 727.664 681.252 727.888 681.276C729.637 681.461 723.744 681.487 723.421 681.497C719.928 681.608 723.909 681.819 724.184 681.875C725.444 682.13 724.615 682.346 725.515 682.56C726.096 682.699 729.956 682.713 729.838 682.822C729.448 683.186 724.063 683.313 728.732 683.656C729.728 683.73 733.947 683.656 730.629 683.92C730.42 683.936 727.385 684.132 729.305 684.245C729.547 684.259 730.776 684.259 730.88 684.278C731.548 684.403 730.568 684.487 731.037 684.623C731.506 684.76 732.206 684.924 731.789 685.08C731.539 685.174 729.249 685.295 728.688 685.34C727.072 685.467 729.721 685.604 727.765 685.682C725.799 685.762 722.812 685.606 721.542 685.815C724.736 685.822 728.015 685.84 731.228 685.852C731.115 686.309 730.082 686.758 730.223 687.215C730.244 687.272 731.961 687.214 732.028 687.275C732.301 687.532 731.076 687.756 731.564 688.022C731.948 688.228 733.766 688.454 734.224 688.67C730.569 688.802 731.81 689.121 731.476 689.353C731.36 689.435 730.384 689.429 730.066 689.487C728.888 689.706 732.118 689.603 732.626 689.663C734.796 689.92 727.484 689.942 727.665 690.245C727.672 690.261 731.569 690.457 731.812 690.484C733.395 690.655 730.456 690.512 730.168 690.62C729.641 690.816 728.711 690.952 729.852 691.182C730.19 691.249 732.619 691.41 730.74 691.54C730.494 691.557 729.206 691.548 729.131 691.562C727.873 691.811 731.921 691.818 733.292 691.961C734.662 692.103 731.868 692.323 731.063 692.368C728.98 692.486 730.173 692.278 729.968 692.272C727.535 692.197 727.954 692.358 727.749 692.481C723.78 692.499 724.018 692.67 727.551 692.608C727.937 692.601 727.567 692.505 727.749 692.481C731.642 692.589 732.141 692.778 728.502 692.986C726.797 693.084 724.809 692.991 725.536 693.288C725.864 693.422 728.597 693.37 729.342 693.489C731.042 693.76 728.493 694.113 728.894 694.392C729.04 694.494 730.536 694.395 730.687 694.464C731.093 694.648 729.971 694.811 730.546 694.996C730.6 695.013 732.165 694.972 732.185 695.029C732.367 695.464 731.364 695.845 731.337 696.299C731.324 696.519 732.187 696.912 732.014 697.14C731.722 697.534 729.445 698.02 729.998 698.357C730.352 698.577 731.919 698.529 732.986 698.623C735.054 698.805 731.349 699.127 730.775 699.17C730.756 699.172 730.387 698.982 729.583 699.083C727.908 699.142 730.768 699.168 730.775 699.17C730.405 699.199 730.049 699.577 730.349 699.652C730.512 699.692 731.996 699.67 732.053 699.691C733.381 700.197 733.758 700.702 733.064 701.216C733.034 701.225 731.375 701.211 731.325 701.232C730.587 701.53 732.617 701.719 733.823 701.964C735.028 702.208 734.624 702.403 731.775 702.548C732.134 702.732 730.874 702.997 730.11 703.15C729.345 703.302 732.576 703.323 732.64 703.337C734.684 703.757 732.835 703.996 732.547 704.431C732.405 704.638 732.874 705.047 733.227 705.27C733.511 705.447 732.754 705.553 733.238 705.717C733.303 705.739 734.742 705.716 734.797 705.723C736.518 705.905 733.001 705.818 732.373 705.855C730.089 705.991 728.873 706.074 729.947 706.307C730.193 706.36 735.257 706.517 735.553 706.615C735.929 706.742 734.114 706.694 734.553 706.827C734.589 706.839 735.709 706.836 735.66 706.919C735.445 707.299 734.794 707.715 734.906 708.112C734.917 708.166 736.693 708.097 736.738 708.175C736.949 708.541 736.883 708.944 736.052 709.302C735.842 709.39 734.598 709.335 734.229 709.354C731.995 709.471 735.241 709.637 735.303 709.664C736.863 710.32 733.925 710.819 735.323 711.488C735.406 711.525 738.885 711.803 735.901 711.928C735.702 711.936 732.649 712.06 734.737 712.169C734.867 712.176 736.439 712.099 736.279 712.233C736.119 712.367 737.169 712.585 735.442 712.768C734.898 712.827 731.852 712.964 734.28 713.138C734.449 713.15 739.939 713.419 736.151 713.515C735.528 713.53 731.52 713.514 733.575 713.723C733.973 713.762 734.867 713.69 735.426 713.795C735.471 713.803 735.511 713.812 735.546 713.821C736.181 713.977 735.306 714.178 736.998 714.364C737.314 714.399 740.035 714.545 737.97 714.663C737.646 714.681 736.308 714.646 736.158 714.708C735.44 715.004 736.335 715.311 735.409 715.611C735.084 715.717 732.921 715.663 732.341 715.773C731.761 715.884 731.204 716.107 732.192 716.222C733.181 716.338 736.629 716.212 736.905 716.385C738.104 717.138 736.081 717.884 735.785 718.637C735.741 718.748 736.975 718.656 736.998 718.82C737.09 719.427 738.247 720.473 735.625 720.999C733.525 721.421 731.927 720.89 731.072 721.213C730.665 721.368 734.673 721.536 734.799 721.574C736.081 721.94 734.306 722.195 734.85 722.525C734.963 722.593 736.588 722.526 736.666 722.584C736.948 722.782 736.223 722.99 736.356 723.179C736.419 723.264 737.66 723.248 737.564 723.326C737.349 723.514 736.827 723.679 735.664 723.861C735.558 723.878 734.015 723.766 733.957 723.904C733.869 724.128 732.722 724.405 733.906 724.663C734.263 724.74 737.099 724.743 735.14 724.907C734.731 724.942 731.326 724.898 734.268 725.089C734.757 725.121 738.726 725.442 736.168 725.599C735.494 725.641 732.708 725.748 733.146 725.84C733.216 725.852 734.739 725.802 734.887 725.878C735.385 726.147 735.222 726.428 735.699 726.703C735.83 726.776 737.406 726.667 737.55 726.777C737.948 727.08 737.547 727.456 737.054 727.75C736.869 727.859 735.563 727.784 735.421 727.792C733.11 727.918 736.229 727.995 736.411 728.037C737.501 728.3 736.035 728.5 736.423 728.742C736.526 728.809 738.013 728.761 738.146 728.775C739.442 728.912 736.771 728.81 736.476 728.897C735.642 729.14 735.762 729.416 735.952 729.662C736.024 729.753 737.749 729.651 737.794 729.733C738.091 730.211 737.926 730.72 736.975 731.187C736.793 731.275 735.464 731.22 735.161 731.238C733.039 731.366 735.934 731.554 736.209 731.597C737.469 731.793 736.294 731.868 736.513 732.04C737.605 732.884 736.827 733.925 736.346 734.72C735.728 735.752 734.464 736.565 734.792 737.547C734.812 737.611 736.578 737.547 736.618 737.602C737.044 738.306 736.353 738.991 736.864 739.692C736.902 739.75 738.577 739.666 738.696 739.759C738.951 739.95 738.86 740.188 738.325 740.377C738.067 740.471 736.63 740.344 736.4 740.44C735.861 740.662 735.741 740.897 736.01 741.119C736.128 741.214 737.841 741.071 737.861 741.194C738.031 742.046 738.326 742.873 736.107 743.728C735.955 743.784 732.473 743.839 733.141 743.965C734.107 743.974 735.244 743.974 736.277 743.978C736.677 744.862 736.166 745.739 735.777 746.623C735.625 746.98 735.492 747.318 735.439 747.667C735.432 747.718 737.277 747.63 737.272 747.729C737.244 748.317 737.756 748.881 735.922 749.478C735.743 749.538 732.497 749.509 732.988 749.681C733.077 749.707 733.51 749.979 734.215 750.044C734.321 750.053 735.836 750.006 735.88 750.089C736.11 750.584 735.764 751.091 734.839 751.59C734.686 751.67 733.073 751.585 732.951 751.642C732.094 752.041 733.321 752.477 731.856 752.859C730.87 753.118 728.081 753.022 725.336 753.157C724.949 753.179 724.888 753.335 723.291 753.344C719.275 753.365 714.878 753.289 710.597 753.32C709.675 753.327 710.668 753.537 708.44 753.413C708.291 753.404 707.552 753.251 706.796 753.212C706.273 753.186 704.649 753.234 703.98 753.18C703.312 753.125 704.673 753.069 703.887 752.976C703.092 752.891 701.244 752.925 701.025 752.748ZM726.693 703.836C725.142 703.977 730.824 703.998 729.465 703.846C729.392 703.838 726.769 703.829 726.693 703.836ZM725.796 686.755C723.289 686.94 726.975 687.066 728.911 686.936C730.844 686.806 726.556 686.699 725.796 686.755ZM723.966 684.841C721.989 685.057 730.048 685.091 728.419 684.86C728.327 684.846 724.08 684.829 723.966 684.841ZM724.555 752.527C724.479 752.527 724.406 752.643 724.481 752.646C726.285 752.707 726.431 752.477 724.555 752.527ZM721.973 682.942C720.883 683.009 722.142 683.203 723.497 683.12C724.588 683.052 723.329 682.858 721.973 682.942ZM720.628 711.201C720.544 711.203 720.467 711.285 720.946 711.283C722.488 711.278 722.053 711.164 720.628 711.201ZM721.881 679.714C721.577 680.191 714.921 680.48 715.672 679.961C715.808 679.867 717.795 680.164 718.395 680.044C719.488 679.825 715.308 679.679 717.548 679.456C717.958 679.415 721.913 679.687 721.89 679.715C721.887 679.715 721.884 679.714 721.881 679.714ZM719.867 703.918C719.792 703.92 719.721 704.034 719.796 704.036C721.6 704.098 721.744 703.87 719.867 703.918ZM717.114 715.977C716.954 715.983 716.805 716.247 716.952 716.255C719.902 716.392 720.214 715.86 717.114 715.977ZM715.709 696.287C713.894 696.164 713.68 696.016 715.959 695.917C715.838 696.04 715.821 696.164 715.709 696.287Z" fill="#DDD4FF"/>
<path d="M455.209 746.366C454.722 744.797 455.263 742.75 455.999 741.184C456.227 740.704 457.233 740.955 457.435 740.617C457.664 740.221 457.596 739.88 457.59 739.495C457.585 739.234 457.612 738.967 457.81 738.687C457.971 738.467 459.565 738.747 459.697 738.522C460.409 737.278 460.009 736.107 460.356 734.849C462.064 728.651 462.699 722.551 463.463 716.271C463.714 714.201 465.177 711.688 464.557 709.545C464.484 709.296 463.082 709.436 462.967 709.388C461.205 708.63 464.031 708.894 464.409 708.411C465.904 706.488 466.047 704.343 465.519 702.475C465.29 701.683 462.504 702.454 464.07 701.675C464.176 701.62 465.661 701.832 465.821 701.614C466.182 701.117 465.922 700.187 466.042 699.805C466.089 699.663 466.126 699.545 466.156 699.442C466.278 698.997 466.272 698.815 466.29 698.256C466.333 697.306 467.08 696.174 466.751 695.153C466.676 694.933 465.15 695.21 464.893 694.861C464.637 694.518 464.774 693.593 465.136 693.281C465.498 692.974 466.695 693.117 466.97 693.065C469.292 692.63 466.092 691.532 466.014 691.398C464.691 688.85 466.53 686.774 466.621 684.186C466.648 683.526 466.609 682.855 466.633 681.871C466.645 681.593 466.648 681.269 466.775 680.564C467.062 679.878 466.643 678.58 469.62 675.651C471.174 674.258 473.555 673.618 474.912 673.629C476.282 673.601 477.091 673.825 477.619 673.958C478.71 674.268 479.142 674.495 479.544 674.669C480.927 675.324 481.358 675.607 481.914 676C482.765 676.631 483.342 677.289 483.955 677.938C484.604 678.633 485.292 679.32 486.171 679.817C486.348 679.919 487.143 678.295 487.362 678.417C489.691 679.717 491.815 681.36 493.374 683.858C493.53 684.11 492.367 685.225 492.47 685.555C493.124 687.547 493.532 691.568 498.195 686.454C498.976 687.307 499.953 688.311 500.002 690.023C500.034 691.126 498.538 692.175 499.61 692.028C499.851 691.997 500.514 690.63 500.812 690.677C501.468 690.781 501.995 691.147 502.537 691.469C503.041 691.769 503.543 692.024 504.208 692.05C504.492 692.056 505.227 690.927 505.423 690.77C507.034 689.512 505.885 692.69 505.91 693.001C506.115 695.337 507.421 695.458 508.545 696.389C508.803 696.604 509.603 694.936 509.893 695.093C511.401 695.947 512.703 697.21 513.477 698.94C513.646 699.327 512.374 700.261 512.4 700.504C512.521 701.556 514.582 699.498 514.745 700.492C514.782 700.699 513.826 701.611 513.751 701.738C512.55 703.716 515.026 701.625 515.169 701.661C516.98 702.035 515.319 705.114 516.689 705.914C516.862 706.016 517.804 704.568 518.231 704.946C518.503 705.187 518.769 705.443 519.044 705.736C521.222 708.004 522.543 710.798 523.058 713.74C523.148 714.244 521.92 714.66 521.808 714.77C520.064 716.504 522.925 714.971 523.112 715.032C524.503 715.548 522.844 717.962 526.491 716.497C526.631 716.923 526.791 717.328 526.966 717.714C527.203 718.218 527.432 718.658 527.566 718.897C527.692 719.143 527.736 719.115 527.29 718.768C526.485 718.143 525.377 717.711 524.517 717.589C523.697 717.457 522.953 717.519 522.467 717.609C521.579 717.776 521.105 718.025 520.839 718.154C520.534 718.312 520.403 718.403 520.285 718.483C520.165 718.565 520.11 718.609 520.061 718.647C519.887 718.789 519.942 718.751 519.996 718.694C520.126 718.565 520.366 718.304 520.613 718.033C521.106 717.494 521.686 716.863 522.309 716.291C523.568 715.131 525.084 714.107 527.126 713.54C527.197 713.517 528.349 714.622 528.485 714.572C530.144 713.977 528.056 712.619 526.389 709.897C525.973 709.209 529.265 710.97 529.517 711.087C530.432 711.533 532.078 713.255 532.277 713.315C533.858 713.768 527.814 708.786 528.411 708.076C528.44 708.062 529.461 709.088 529.621 709.121C530.12 709.228 529.846 708.665 530.376 708.809C531.599 709.143 534.628 711.456 533.476 709.396C533.342 709.156 530.536 706.915 530.462 706.084C530.455 705.985 530.485 705.905 530.562 705.85C530.86 705.635 531.818 704.431 532.32 704.306C532.818 704.182 533.687 705.357 533.754 705.376C535.919 705.803 536.209 706.653 538.653 708.132C541.079 709.617 536.071 705.226 535.679 704.553C535.292 703.878 536.996 704.339 537.528 704.564C538.061 704.789 538.557 705.592 538.902 705.673C541.167 706.193 536.844 703.035 536.342 702.026C535.161 699.629 539.24 702.508 540.163 702.245C540.414 702.172 539.475 701.526 539.539 701.308C539.805 700.452 541.245 701.18 540.865 699.544C540.802 699.278 539.193 696.675 541.084 697.859C541.356 698.031 542.102 699.028 542.536 698.979C543.187 698.906 544.017 698.446 544.107 697.77C544.172 697.27 542.406 696.172 543.21 696.255C543.567 696.294 544.119 697.423 544.72 697.426C545.323 697.428 546.036 696.634 546.297 696.314C546.553 695.996 545.305 695.07 545.255 694.973C544.972 694.415 545 693.336 545.048 693.289C546.421 691.751 548.421 690.972 550.149 689.981C551.332 689.304 552.403 688.492 553.037 687.267C553.163 687.03 551.841 686.074 551.848 686.027C551.921 684.927 554.671 688.321 556.173 688.805C553.651 686.688 554.335 686.816 554.476 686.105C554.537 685.765 553.467 685.053 553.386 684.947C552.207 683.35 554.292 684.759 554.739 685.023C556.367 686.013 554.87 684.338 555.964 684.991C557.052 685.635 558.172 687.183 558.545 686.697C557.747 685.813 555.091 684.193 554.995 683.525C554.61 681.052 558.326 680.14 559.387 679.063C559.458 678.993 559.521 678.93 559.605 678.837C559.645 678.795 559.684 678.752 559.743 678.686C559.795 678.631 559.865 678.545 560.038 678.37C560.373 678.107 560.473 677.795 561.757 677.32C562.27 677.094 563.834 677.096 564.657 677.719C565.559 678.35 565.719 678.803 565.919 679.164C566.194 679.773 566.213 680.043 566.261 680.299C566.293 680.51 566.307 680.704 566.31 680.837C566.323 681.405 566.251 681.74 566.061 682.152C565.247 683.718 567.541 683.218 568.554 684.166C569.57 685.062 563.966 684.473 562.753 684.566C561.542 684.662 562.781 684.841 562.114 684.99C561.447 685.144 560.632 684.761 560.376 685.157C560.115 685.57 562.277 686.68 563.549 686.74C566.237 686.893 569.019 686.411 568.08 687.189C568.025 687.238 566.54 687.207 566.405 687.394C566.072 687.881 565.879 688.366 565.766 688.804C565.618 690.042 565.688 691.305 565.318 692.622C565.241 692.891 563.593 693.079 563.529 693.24C562.859 694.911 565.423 693.733 568.612 693.816C564.582 694.593 562.25 695.606 562.471 696.674C562.601 697.316 564.323 696.816 565.648 696.961C566.048 697.007 564.949 697.734 565.789 697.638C568.539 697.336 571.457 696.24 570.504 697.661C570.457 697.723 568.949 697.873 568.896 698.064C568.544 699.31 571.394 698.873 571.977 700.057C572.436 700.992 571.016 703.029 570.913 704.173C566.363 704.905 567.567 705.735 570.771 705.67C570.761 706.096 570.852 706.514 570.869 706.949C570.869 707.186 570.836 707.436 570.7 707.707C570.591 707.924 569.259 708.068 569.122 708.12C566.994 709.003 570.085 708.627 570.229 708.702C571.704 709.746 569.915 711.702 572.594 712.239C572.693 712.262 575.683 711.121 573.666 712.359C573.528 712.447 571.994 712.552 572.158 713.238C572.315 713.911 571.312 715.87 573.086 716.144C573.515 716.217 576.112 715.622 574.503 716.952C574.284 717.132 573.428 717.471 573.011 717.781C571.687 718.778 574.662 717.495 572.362 719.044C570.062 720.594 568.578 722.227 570.741 722.297C570.805 722.301 573.202 721.358 573.314 721.666C573.49 722.159 573.351 723.06 573.612 723.536C573.738 723.764 575.082 722.894 575.128 722.921C576.718 724.082 576.028 725.857 576.268 727.816C576.306 728.169 578.711 728.205 577.403 729.514C575.956 730.922 568.5 733.322 570.732 733.896C571.579 734.019 581.299 731.705 576.71 734.369C577.345 734.996 577.47 735.769 577.391 736.489C577.265 738.002 576.746 739.549 578.11 740.934C578.204 741.034 580.991 741.005 580.986 741.255C580.974 741.635 579.718 742.005 579.669 742.275C579.433 743.436 580.675 744.274 580.671 745.344C580.674 745.758 579.33 745.834 579.335 746.318C579.345 746.826 581.132 746.831 580.411 747.623C579.86 748.222 576.416 749.393 576.143 750.163C579.631 749.491 579.648 749.958 580.737 750.544C580.948 750.656 582.119 750.227 582.281 750.265C582.963 750.401 582.027 750.9 582.764 751.005C582.942 751.033 584.123 750.756 584.334 750.76C586.171 750.77 583.707 752.142 583.285 752.402C581.67 753.353 583.259 753.184 582.675 753.754C582.09 754.319 581.082 753.978 580.78 754.527C580.484 755.063 580.417 755.551 580.369 755.894L580.365 755.837C580.326 755.28 580.609 754.845 580.768 754.678C580.882 754.553 580.97 754.488 581.035 754.442C581.176 754.349 581.176 754.355 581.207 754.336C581.244 754.313 581.216 754.319 581.183 754.323C581.115 754.333 581.002 754.355 580.886 754.376C580.65 754.418 580.405 754.46 580.158 754.482C579.795 754.52 580.271 756.087 580.225 756.129C579.476 756.65 578.467 755.033 578.4 758.289C576.875 750.072 578.008 759.147 576.678 757.626C576.575 757.502 575.972 753.603 576.261 752.985C576.547 752.368 577.222 753.53 577.593 752.578C577.684 752.354 577.882 748.61 577.931 748.378C578.351 746.564 579.179 752.396 579.262 752.712C580.131 756.124 580.328 752.065 580.331 751.778C580.382 751.552 580.431 751.381 580.348 751.287C580.299 751.244 580.237 751.206 579.975 751.268C579.904 751.286 579.818 751.313 579.712 751.355C579.606 751.399 579.493 751.441 579.237 751.593C579 751.738 578.691 751.942 578.305 752.339C577.811 752.821 576.832 754.224 576.947 756.034L576.96 756.208C576.787 756.281 576.874 755.886 576.174 755.576C575.487 755.256 571.741 756.195 571.741 755.733C571.716 754.094 576.839 752.364 571.975 751.968C570.937 751.873 566.865 753.031 569.886 751.237C570.076 751.124 572.899 749.745 570.928 749.634C570.679 749.619 569.469 749.842 569.353 749.781C568.603 749.39 569.504 748.858 568.947 748.38C568.389 747.892 567.588 747.321 567.903 746.624C568.087 746.183 570.285 745.383 570.813 745.117C572.336 744.367 569.641 744.225 571.534 743.63C573.44 743.055 576.479 743.238 577.632 742.288C574.462 742.684 571.203 743.051 568.012 743.425C567.88 741.581 568.697 739.689 568.364 737.916C568.319 737.693 566.636 738.108 566.544 737.871C566.516 737.796 566.496 737.721 566.483 737.645C566.434 737.738 567.394 737.285 566.842 736.991C566.372 736.74 564.506 736.896 563.906 736.611C567.218 735.028 565.711 734.616 565.728 733.844C565.73 733.567 566.628 733.183 566.841 732.882C567.614 731.743 564.82 733.402 564.28 733.444C561.975 733.642 568.537 730.416 567.894 729.516C567.862 729.466 564.062 730.577 563.803 730.602C562.116 730.77 564.971 729.905 565.055 729.431C565.205 728.559 565.806 727.689 564.397 727.439C563.982 727.369 561.541 727.93 562.986 726.629C563.176 726.458 564.34 725.906 564.383 725.825C565.068 724.397 561.446 726.203 559.965 726.311C558.483 726.415 560.58 724.356 561.224 723.84C562.883 722.493 562.184 723.773 562.379 723.705C564.691 722.892 564.031 722.505 563.999 721.971C567.533 720.164 567.027 719.666 563.952 721.423C563.617 721.617 564.119 721.803 563.999 721.971C560.313 723.296 559.5 722.763 562.43 720.434C563.807 719.348 565.767 718.863 564.61 718.067C564.085 717.696 561.673 718.998 560.784 718.823C558.742 718.392 560.498 715.933 559.698 714.842C559.4 714.427 558.142 715.367 557.887 715.09C557.205 714.339 558.033 713.219 557.223 712.402C557.148 712.325 555.691 712.947 555.589 712.634C555.237 711.584 555.151 710.442 555.175 709.247C555.303 708.418 555.495 707.576 555.366 706.701C555.256 705.94 554.169 704.744 554.194 703.942C554.234 702.56 556.121 700.431 555.321 699.386C554.809 698.71 553.316 699.218 552.204 699.14C550.053 699.002 553.4 697.069 553.919 696.778C553.936 696.765 554.452 697.335 555.15 696.796C556.729 696.199 553.927 696.783 553.919 696.778C554.256 696.592 554.279 695.2 553.919 695.003C553.724 694.901 552.306 695.345 552.231 695.283C551.33 694.526 550.669 693.713 550.234 692.618C549.511 690.218 549.522 688.518 549.798 687.042C549.827 686.988 551.488 687.016 551.534 686.896C552.234 685.273 550.247 684.372 549.077 683.281C547.915 682.209 548.33 681.744 551.176 681.786C551.112 681.802 551.099 681.854 551.14 682.047C551.162 682.153 551.193 682.261 551.255 682.497C551.319 682.724 551.395 683.002 551.573 683.549C551.618 683.682 551.668 683.826 551.727 683.984C551.79 684.155 551.876 684.386 551.976 684.623C552.2 685.137 552.375 685.569 552.996 686.57C553.616 687.484 554.35 688.605 556.346 689.99C558.207 691.296 561.08 692.077 563.333 691.883C565.51 691.71 566.626 691.183 567.621 690.688C568.424 690.253 568.853 689.911 569.249 689.579C569.662 689.224 569.802 689.044 569.98 688.833C570.144 688.632 570.265 688.457 570.359 688.302C570.973 687.551 570.859 687.535 570.897 687.399C570.889 687.307 570.844 687.264 570.792 687.233C570.685 687.173 570.55 687.159 570.425 687.148C569.504 687.12 572.045 689.121 572.069 689.196C572.676 691.846 570.508 691.649 569.124 692.931C568.462 693.539 567.697 695.202 567.338 696.159C567.055 696.926 566.186 696.771 566.089 697.611C566.074 697.725 567.215 698.607 567.237 698.666C567.996 700.403 565.626 697.775 565.051 697.477C562.961 696.385 561.839 695.815 561.979 697.248C562.01 697.577 565.266 701.51 565.18 702.031C565.077 702.686 563.904 701.286 563.825 702.004C563.818 702.064 564.634 702.831 564.352 703.052C564.21 703.165 564.063 703.276 563.91 703.386C562.732 704.218 561.366 704.874 560.489 705.899C560.351 706.053 561.797 707.118 561.619 707.361C560.778 708.505 559.673 709.522 558.148 709.879C557.77 709.963 557.03 708.943 556.718 708.733C554.822 707.472 556.698 710.192 556.671 710.308C556.092 713.116 552.711 712.372 552.073 715.067C552.038 715.222 553.89 718.325 551.421 716.596C551.258 716.479 548.728 714.713 549.994 716.417C550.074 716.522 551.406 717.399 550.971 717.631C550.536 717.864 550.812 719.114 549.116 718.413C548.583 718.19 545.997 716.508 547.418 718.564C547.508 718.717 551.068 722.98 548.017 720.719C547.616 720.423 545.63 718.674 545.405 718.913C545.339 718.983 545.386 719.186 545.602 719.576C545.81 719.945 546.66 720.327 546.835 720.98C547.115 721.977 545.794 721.872 546.686 723.581C546.846 723.881 548.581 726.042 546.727 725.037C546.437 724.879 545.496 723.92 545.236 723.995C543.991 724.358 543.952 725.799 542.534 726.056C542.032 726.149 540.5 724.608 539.791 724.554C539.079 724.504 538.122 724.786 538.605 725.752C539.088 726.719 542.045 728.554 541.845 729.228C541.43 730.583 540.511 731.508 539.297 732.44C538.68 732.915 538.012 733.374 537.116 734.046C536.642 734.404 536.172 734.771 535.273 735.48C534.756 735.878 534.286 736.284 532.959 737.155C532.282 737.567 531.411 738.186 529.307 738.982C528.009 739.41 526.897 739.871 523.915 739.994C521.374 740.124 516.939 739.214 513.756 736.695C512.529 735.702 511.663 734.767 511.022 734.017C510.512 733.41 510.281 733.581 509.948 733.661C509.634 733.758 509.193 733.73 508.699 733.093C507.927 732.089 507.447 731.466 507.079 731.051C505.47 729.101 503.863 727.095 504.775 724.796C505.705 722.426 508.05 723.034 508.129 721.631C508.157 720.948 504.542 722.773 504.372 722.751C502.649 722.527 503.63 720.86 502.619 720.438C502.413 720.356 501.241 721.497 501.083 721.421C500.797 721.294 500.73 721 500.675 720.715C500.762 720.626 500.784 720.45 500.646 720.39C500.509 720.333 499.609 721.188 499.591 721.028C499.523 720.639 499.636 720.01 500.11 718.848C500.151 718.74 501.449 717.849 501.216 717.542C500.847 717.062 500.995 715.636 499.613 715.998C499.197 716.107 497.333 718.242 498.235 716.434C498.421 716.055 500.744 713.558 498.37 715.401C497.967 715.699 494.672 718.116 495.907 715.825C496.231 715.22 497.712 712.834 497.196 712.982C497.12 713.011 496.297 714.303 496.008 714.262C495.012 714.103 494.376 713.403 493.35 713.223C493.075 713.179 492.415 714.656 492.037 714.55C491.003 714.268 490.228 713.2 489.699 712.212C489.505 711.845 490.475 710.934 490.537 710.803C491.519 708.663 489.499 711.056 489.276 711.12C489.018 711.189 488.818 711.188 488.656 711.139C487.965 710.931 487.992 709.846 487.233 709.702C486.978 709.651 486.27 710.97 486.155 711.052C485.014 711.838 486.836 709.85 486.745 709.429C486.495 708.243 485.607 707.779 484.751 707.427C484.436 707.299 483.775 708.936 483.503 708.805C481.879 708.06 480.435 706.89 479.507 705.126C479.334 704.791 480.245 703.802 480.356 703.512C481.141 701.483 478.951 703.502 478.666 703.643C477.358 704.285 477.773 703.15 477.114 702.974C474.519 702.295 472.187 700.365 470.1 698.463C469.577 697.987 469.086 697.522 468.666 697.121C468.39 696.858 468.139 696.604 467.966 696.401C467.807 696.204 467.664 696.029 467.937 696.098C468.096 696.138 468.315 696.242 469.16 696.573C469.59 696.732 470.206 696.983 471.423 697.273C472.7 697.508 474.721 698.126 478.75 697.22C482.914 696.399 487.109 692.463 488.196 690.306C489.509 688.064 489.694 686.94 489.897 686.198C490.196 684.791 490.109 684.64 490.096 684.528C489.999 684.346 489.861 684.661 489.753 684.991C489.641 685.339 489.545 685.767 489.471 686.217C489.324 687.126 489.265 688.123 489.348 689.203C489.364 689.429 491.133 689.224 491.17 689.421C491.563 691.991 490.854 694.579 491.344 697.221C491.381 697.44 493.059 697.136 493.175 697.49C493.402 698.132 493.342 698.935 492.924 699.627C492.882 699.694 492.836 699.76 492.787 699.824C492.527 700.172 491.093 699.693 490.861 700.044C490.316 700.874 490.191 701.755 490.454 702.602C490.569 702.966 492.286 702.428 492.303 702.902C492.451 706.1 492.727 709.243 490.489 712.465C490.335 712.685 486.852 712.858 487.517 713.335C488.483 713.376 489.619 713.381 490.652 713.403C491.18 718.064 489.946 722.673 489.732 727.342C489.723 727.541 491.57 727.209 491.563 727.592C491.523 729.802 492.022 731.945 490.175 734.196C489.994 734.421 486.75 734.274 487.237 734.949C487.326 735.068 487.753 736.062 488.456 736.325C488.562 736.36 490.078 736.189 490.12 736.507C490.243 737.554 490.185 738.619 489.947 739.679C489.759 740.528 489.459 741.36 489.046 742.172C488.892 742.478 487.281 742.143 487.157 742.36C486.292 743.86 487.509 745.53 486.036 746.965C485.045 747.921 482.258 747.556 479.511 748.054C479.123 748.121 479.058 748.721 477.461 748.744C473.445 748.801 469.049 748.485 464.768 748.581C464.307 748.594 464.324 748.799 464.177 748.944C464.104 749.027 463.99 749.037 463.755 749.123C463.521 749.094 463.165 749.042 462.609 748.923C462.46 748.89 461.724 748.302 460.969 748.155C460.447 748.05 458.822 748.224 458.154 748.014C457.487 747.803 458.85 747.593 458.066 747.248C457.272 746.901 455.423 747.044 455.209 746.366ZM566.039 687.356C564.454 686.88 568.918 690.398 568.229 689.055C568.19 688.987 566.118 687.378 566.039 687.356ZM572.964 739.216C575.373 738.223 571.656 738.136 569.789 738.861C567.926 739.601 572.234 739.519 572.964 739.216ZM575.781 746.359C577.6 745.22 569.616 746.316 571.372 746.992C571.472 747.033 575.675 746.426 575.781 746.359ZM478.743 745.659C478.667 745.672 478.591 746.09 478.666 746.108C480.469 746.347 480.62 745.487 478.743 745.659ZM579.225 753.267C580.215 752.746 578.813 752.32 577.576 752.963C576.582 753.49 577.997 753.934 579.225 753.267ZM542.18 704.149C542.113 704.097 541.845 704.267 542.194 704.594C543.322 705.645 543.304 705.036 542.18 704.149ZM571.917 758.287C571.911 758.048 572.015 757.774 572.209 757.497C572.062 756.63 572.729 756.019 572.791 756.015C572.964 755.896 573.095 755.854 573.198 755.83C573.348 755.813 573.465 755.831 573.561 755.86C573.725 755.931 573.871 756.028 573.981 756.144C574.225 756.372 574.403 756.659 574.574 756.964C574.91 757.577 575.154 758.282 575.307 758.933C575.46 759.583 575.502 760.181 575.443 760.587C575.418 760.789 575.351 760.947 575.29 761.034C575.256 761.079 575.226 761.106 575.21 761.11C575.2 761.111 575.185 761.102 575.345 761.006C575.429 760.96 575.514 760.874 575.499 760.806C575.49 760.735 575.396 760.677 575.294 760.601C575.08 760.452 574.954 760.192 574.9 759.902C574.8 759.32 574.839 758.651 574.602 758.395C574.498 758.283 574.419 758.248 574.397 758.256C574.387 758.26 574.394 758.276 574.46 758.273C574.492 758.27 574.573 758.25 574.698 758.168C574.76 758.121 574.837 758.086 574.984 757.867C575.118 757.67 575.23 757.304 575.174 756.961C575.834 757.321 577.914 757.475 576.356 758.477C575.975 758.667 571.904 758.361 571.907 758.286C571.91 758.286 571.913 758.286 571.917 758.287ZM560.401 683.495C560.337 683.456 560.02 683.753 560.071 683.809C561.358 685.097 562.01 684.482 560.401 683.495ZM527.588 715.416C527.445 715.338 526.7 716.002 526.789 716.125C528.73 718.407 530.254 717.056 527.588 715.416ZM570.794 704.21C572.663 704.388 572.968 704.944 570.773 705.667C570.82 705.182 570.762 704.701 570.794 704.21Z" fill="#DDD4FF"/>
</svg>
