<svg width="1600" height="1602" viewBox="0 0 1600 1602" fill="none" xmlns="http://www.w3.org/2000/svg">
<ellipse cx="800" cy="801" rx="800" ry="801" fill="#121212"/>
<path d="M913.82 407.644C936.677 402.481 959.7 405.316 979.76 416.819C1014.94 436.992 1030.59 480.477 1006.52 513.4C1009.53 495.81 1012.12 480.373 1004.42 463.254C996.727 446.158 984.284 436.077 966.132 428.949C954.343 425.415 944.687 424.183 932.243 425.966C915.326 428.492 900.178 437.031 890.081 449.727C876.717 466.746 875.125 484.375 878.609 504.401C873.545 505.322 866.343 507.289 861.791 505.271C858.938 502.622 858.357 501.405 857.154 497.83C843.488 457.186 870.669 419.193 913.82 407.644Z" fill="#FCFCFC"/>
<path d="M639.9 406.704C694.394 399.086 737.379 444.777 725.928 493.049C723.362 503.872 718.442 511.19 708.146 517.032C727.624 482.985 723.434 446.551 683.598 427.758C681.879 427.11 680.132 426.526 678.364 426.009C664.452 421.955 649.352 423.144 636.398 429.314C615.265 439.53 601.331 461.954 601.91 483.642C601.663 486.557 603.064 498.091 602.266 500.052C600.976 503.219 582.275 503.311 579.078 501.29C577.918 500.555 577.135 498.782 576.946 497.827C573.027 478.022 577.002 456.843 588.61 439.695C601.687 420.822 617.028 411.542 639.9 406.704Z" fill="#FCFCFC"/>
<path d="M874.513 581.125L876.684 581.191L876.999 582.346C874.157 585.297 865.243 589.564 861.099 591.812C858.014 598.226 855.588 610.757 848.804 613.125C842.514 612.338 838.271 607.154 833.668 602.839C795.433 615.009 759.589 622.55 719.967 608.09C713.37 605.306 707.441 602.624 701.999 598.058C717.257 601.144 730.131 603.849 745.641 605.126C790.507 608.822 832.597 594.208 874.513 581.125Z" fill="#FCFCFC"/>
<path d="M515.536 347.904C518.964 354.971 527.036 364.404 527.036 364.404L600.536 316.404C600.536 316.404 596.579 310.611 594.036 306.904C591.891 303.777 590.569 302.104 588.536 298.904C586.238 295.285 585.108 293.157 583.036 289.404C581.01 285.733 579.519 283.825 578.036 279.904C577.031 277.245 576.848 275.628 576.036 272.904C575.101 269.767 574.048 268.137 573.536 264.904C572.987 261.432 573.323 259.412 573.536 255.904C573.799 251.576 574.023 249.119 575.036 244.904C575.902 241.302 576.704 239.361 578.036 235.904C579.733 231.501 580.865 229.093 583.036 224.904C585.008 221.098 586.332 219.081 588.536 215.404C591.739 210.06 593.69 207.159 597.036 201.904C600.905 195.828 607.036 186.404 607.036 186.404C607.036 186.404 597.128 189.345 591.036 191.904C583.951 194.88 580.049 196.825 573.536 200.904C566.685 205.194 563.273 208.26 557.036 213.404C551.807 217.716 548.865 220.147 544.036 224.904C537.728 231.117 534.253 234.75 529.036 241.904C525.621 246.587 523.832 249.327 521.036 254.404C518.129 259.684 516.832 262.83 514.536 268.404C511.314 276.226 508.346 280.105 507.536 288.904L507.533 288.939C506.846 296.405 506.798 296.924 507.536 309.404C507.954 316.464 508.197 320.459 509.536 327.404C511.116 335.594 511.896 340.399 515.536 347.904Z" fill="white"/>
<path d="M1085.46 347.904C1082.04 354.971 1073.96 364.404 1073.96 364.404L1000.46 316.404C1000.46 316.404 1004.42 310.611 1006.96 306.904C1009.11 303.777 1010.43 302.104 1012.46 298.904C1014.76 295.285 1015.89 293.157 1017.96 289.404C1019.99 285.733 1021.48 283.825 1022.96 279.904C1023.97 277.245 1024.15 275.628 1024.96 272.904C1025.9 269.767 1026.95 268.137 1027.46 264.904C1028.01 261.432 1027.68 259.412 1027.46 255.904C1027.2 251.576 1026.98 249.119 1025.96 244.904C1025.1 241.302 1024.3 239.361 1022.96 235.904C1021.27 231.501 1020.13 229.093 1017.96 224.904C1015.99 221.098 1014.67 219.081 1012.46 215.404C1009.26 210.06 1007.31 207.159 1003.96 201.904C1000.09 195.828 993.964 186.404 993.964 186.404C993.964 186.404 1003.87 189.345 1009.96 191.904C1017.05 194.88 1020.95 196.825 1027.46 200.904C1034.32 205.194 1037.73 208.26 1043.96 213.404C1049.19 217.716 1052.13 220.147 1056.96 224.904C1063.27 231.117 1066.75 234.75 1071.96 241.904C1075.38 246.587 1077.17 249.327 1079.96 254.404C1082.87 259.684 1084.17 262.83 1086.46 268.404C1089.69 276.226 1092.65 280.105 1093.46 288.904L1093.47 288.939C1094.15 296.405 1094.2 296.924 1093.46 309.404C1093.05 316.464 1092.8 320.459 1091.46 327.404C1089.88 335.594 1089.1 340.399 1085.46 347.904Z" fill="white"/>
<path opacity="0.14" d="M590.718 716.884H604.018V707.916H590.718C588.21 707.916 586.234 709.968 586.234 712.4C586.234 714.832 588.21 716.884 590.718 716.884ZM621.802 707.916V716.884H635.178C637.61 716.884 639.586 714.832 639.586 712.4C639.586 709.968 637.61 707.916 635.178 707.916H621.802ZM621.802 734.592V739H604.018V734.592H590.718C578.482 734.592 568.526 724.636 568.526 712.4C568.526 700.164 578.482 690.208 590.718 690.208H604.018V685.8H621.802V690.208H635.102C647.338 690.208 657.294 700.164 657.294 712.4C657.294 724.636 647.338 734.592 635.102 734.592H621.802ZM691.319 721.292L685.771 704.724L680.299 721.292H691.319ZM655.751 739L673.459 685.8H698.083L715.791 739H697.171L695.727 734.592H675.815L674.371 739H655.751ZM738.105 739H720.321V685.876H738.105V708.828L753.457 685.8H773.673L755.965 712.4L773.673 739H753.457L738.105 715.972V739ZM794.436 685.8H819.212L836.92 739H818.224L806.824 704.724L795.424 739H776.728L794.436 685.8ZM871.651 712.4V703.508H858.351C855.843 703.508 853.867 705.484 853.867 707.992C853.867 710.424 855.843 712.4 858.351 712.4H871.651ZM858.351 685.8H889.359V739H871.651V730.108H866.331L860.099 739H840.567L848.395 727.828C841.175 724.18 836.159 716.656 836.159 707.992C836.159 695.756 846.115 685.8 858.351 685.8ZM896.962 685.8H914.67V721.292H923.562V685.8H941.27V721.292H950.162V685.8H967.87V739H896.962V685.8ZM1007.27 721.292L1001.72 704.724L996.248 721.292H1007.27ZM971.7 739L989.408 685.8H1014.03L1031.74 739H1013.12L1011.68 734.592H991.764L990.32 739H971.7Z" fill="white"/>
</svg>
